<svg xmlns="http://www.w3.org/2000/svg" width="72.528" height="70.715" viewBox="0 0 72.528 70.715">
  <g id="Group_11985" data-name="Group 11985" transform="translate(-190.243 -4328)">
    <path id="Path_18935" data-name="Path 18935" d="M59.685,70.715H12.843A12.832,12.832,0,0,1,0,57.872V12.843A12.832,12.832,0,0,1,12.843,0H59.685A12.832,12.832,0,0,1,72.528,12.843V57.872A12.832,12.832,0,0,1,59.685,70.715Z" transform="translate(190.243 4328)" fill="#ff26be"/>
    <path id="Path_18936" data-name="Path 18936" d="M159.713,168.869H115.169A10.988,10.988,0,0,1,104.2,157.9V115.169A10.988,10.988,0,0,1,115.169,104.2h44.515a10.968,10.968,0,0,1,10.969,10.969v42.7a10.951,10.951,0,0,1-10.94,11Z" transform="translate(89.066 4226.823)" fill="#2e001f"/>
    <path id="Path_18937" data-name="Path 18937" d="M481.828,608.692l8.463,16.258c.151.241.061.484-.183.484h-5.26a.593.593,0,0,1-.635-.392c-1.935-3.989-3.9-7.978-5.924-12.269h-.061c-1.813,4.05-3.809,8.312-5.741,12.3a.583.583,0,0,1-.545.334H466.96c-.3,0-.334-.241-.18-.424l8.28-15.776-8.007-15.956a.244.244,0,0,1,.18-.424h5.2c.3,0,.424.061.542.334,1.9,3.989,3.838,8.1,5.651,12.118h.061c1.752-3.989,3.687-8.129,5.561-12.089.151-.241.241-.392.545-.392h4.865c.241,0,.334.183.183.424Zm9.945,4.926c0-7.041,4.685-12.542,12.118-12.542a13.325,13.325,0,0,1,1.572.061v-8.007a.3.3,0,0,1,.3-.3h4.775c.241,0,.3.09.3.241v27.743a21.581,21.581,0,0,0,.151,2.962c0,.183-.061.241-.241.334a17.99,17.99,0,0,1-7.737,1.752c-6.559.026-11.245-4.021-11.242-12.243Zm13.688-7.734a4.543,4.543,0,0,0-1.752-.3c-3.809,0-6.467,2.93-6.467,7.8,0,5.561,2.721,7.8,6.136,7.8a5.665,5.665,0,0,0,2.086-.334V605.884Z" transform="translate(-262.908 3752.398)" fill="#ffd9f2"/>
  </g>
</svg>
