<svg xmlns="http://www.w3.org/2000/svg" width="73.245" height="57.646" viewBox="0 0 73.245 57.646">
  <path id="cloud-icon-1" d="M22.059,36.735l-6.71,2.883,6.215,2.657,7.205-2.657-6.71-2.883Zm-10.088,3.6-.225,12.971,9.818,4.323V44.165l-9.592-3.828Zm20.176,0-8.872,3.378v12.7l8.872-3.6V40.338ZM42.732-.015,35.975,2.867l6.26,2.657,7.206-2.657L42.732-.015ZM33.363,3.814V16.785l8.376,2.432.271-11.8-8.647-3.6ZM52.1,4.535,44.172,7.913V20.659l7.927-3.6V4.535ZM11,18.24l-6.71,2.883,6.215,2.657,7.205-2.657L11,18.24ZM.914,21.843.689,34.814l9.818,4.323V25.671Zm20.176,0-8.872,3.378v12.7l8.872-3.6ZM32.62,17.762l-6.71,2.882L32.124,23.3l7.206-2.657L32.62,17.762Zm-10.089,3.6-.225,12.97,9.817,4.324V25.194Zm20.176,0-8.872,3.378v12.7l8.872-3.6V21.365ZM63.846-.015l-6.71,2.882L63.35,5.524l7.206-2.657L63.846-.015Zm-10.089,3.6-.225,12.971,9.818,4.323V7.417l-9.593-3.83Zm20.177,0L65.062,6.966v12.7l8.872-3.6V3.587Z" transform="translate(-0.689 0.015)" fill="#f68d11"/>
</svg>
