<svg xmlns="http://www.w3.org/2000/svg" width="52.928" height="63.557" viewBox="0 0 52.928 63.557">
  <path id="back-end-icon_5" d="M17.958,64.331c-3.811-1.648-7.377-5.834-7.385-10.118-.01-4.67,2.949-8.635,6.631-11.242-.442,1.672-.684,3.2.413,4.7a4.438,4.438,0,0,0,4.491,1.7c3.938-.862,4.12-5.192,1.785-7.715-2.309-2.5-4.542-5.32-3.664-8.943A9.32,9.32,0,0,1,23.2,27.977c-1.086,2.853,2,5.668,4.032,7.07,3.527,2.432,7.4,4.27,10.638,7.12,3.41,3,5.93,7.047,5.422,11.745-.551,5.093-4.6,8.635-9.137,10.423,9.591-2.117,19.5-9.562,19.706-20.2.168-8.751-5.837-15.486-13.273-19.342l-.389-.212a3.164,3.164,0,0,1,.263,1.294,4.458,4.458,0,0,0,.124-.859,4.192,4.192,0,0,1-.137,1.038l.012-.179a4.382,4.382,0,0,1-.551,1.312l.11-.117a4.667,4.667,0,0,1-7.484.448c-3.189-4.1.067-8.518.523-12.859.57-5.44-2.841-10.721-7.071-13.882,2.329,3.769-.739,8.755-3.194,11.542-2.382,2.7-5.277,4.958-7.906,7.413a65.89,65.89,0,0,0-7.858,8.509c-4.644,6.2-7.485,13.986-5.4,21.713s8.777,12.639,16.33,14.378Z" transform="translate(-0.932 -0.777)" fill="#ee4323"/>
</svg>
