<svg xmlns="http://www.w3.org/2000/svg" width="58.924" height="58.955" viewBox="0 0 58.924 58.955">
  <g id="Group_11989" data-name="Group 11989" transform="translate(-1395 -4146)">
    <path id="Path_2185" data-name="Path 2185" d="M33.325,59.892V48.467A18.132,18.132,0,0,0,50.162,23.746,17.076,17.076,0,0,0,39.974,13.557,18.145,18.145,0,0,0,15.253,30.393H3.861A29.567,29.567,0,0,1,42.714,2.4,28.534,28.534,0,0,1,61.322,21.008a29.568,29.568,0,0,1-28,38.884" transform="translate(1391.139 4145.063)" fill="#0080ff"/>
    <path id="Path_2186" data-name="Path 2186" d="M23.18,69.127H34.538V57.769H23.182Zm-8.752,8.753h8.751V69.128H14.428ZM7.111,69.128h7.317V61.809H7.111Z" transform="translate(1389.959 4124.437)" fill="#0080ff"/>
  </g>
</svg>
