<svg xmlns="http://www.w3.org/2000/svg" width="76" height="85.648" viewBox="0 0 76 85.648">
  <g id="Group_11972" data-name="Group 11972" transform="translate(-1518.517 -4233)">
    <path id="Path_18975" data-name="Path 18975" d="M165.228,85.649h1.041l17-8.5.283-.4V8.9l-.283-.4L166.269,0h-1.054l.013,85.649" transform="translate(1402.351 4233)" fill="#5294cf"/>
    <path id="Path_18976" data-name="Path 18976" d="M46.782,85.649H45.726l-16.985-8.5-.345-.593L28.222,9.241l.52-.748L45.726,0H46.8l-.013,85.649" transform="translate(1498.673 4233)" fill="#1f5b98"/>
    <path id="Path_18977" data-name="Path 18977" d="M87.285,0h24.173V85.649H87.285Z" transform="translate(1457.145 4233)" fill="#2d72b8"/>
    <path id="Path_18978" data-name="Path 18978" d="M76,61.017l-.574-.127-8.2-.765-.122.061L50.087,59.5H25.913L8.9,60.185V47.21l-.018.009.018-.038,17.015-3.942H50.087L67.1,47.182l6.255,3.325V48.369L76,48.08l-.274-.534-8.369-5.985-.255.083L50.087,36.372H25.913L8.9,41.644V28.61L0,39.034v9.1l.069-.05,2.574.281v2.181L0,51.965v9.059l.069-.007,2.574.038v3.8L.422,64.89,0,64.85v9.062l2.643,1.421V77.54l-2.533.28L0,77.736v9.1L8.9,97.264V84.231L25.913,89.5H50.087l17.065-5.288.227.1,8.259-5.9L76,77.831l-2.643-.292V75.377l-.346-.138-5.653,3.047-.2.427-17.065,3.92v0H25.913v0L8.9,78.7V65.675l17.015.678v.017H50.087L67.1,65.675l.387.178,7.95-.685L76,64.895l-2.643-.038v-3.8L76,61.017" transform="translate(1518.517 4212.884)" fill="#1a476f"/>
    <path id="Path_18979" data-name="Path 18979" d="M226.027,84.231V97.264l8.9-10.426V77.8l-8.847,6.42-.051.015m0-5.506.051-.012,8.847-4.758v-9.1l-8.9.818V78.726m.051-31.532-.051-.012v13l8.9.832V51.922l-8.847-4.728m0-5.5,8.847,6.385V39.037l-8.9-10.427V41.644l.051.018V41.7" transform="translate(1359.591 4212.884)" fill="#2d72b8"/>
  </g>
</svg>
