<svg xmlns="http://www.w3.org/2000/svg" width="56.288" height="23.168" viewBox="0 0 56.288 23.168">
  <path id="Path_19183" data-name="Path 19183" d="M20-4.16V0H2.656V-22.4H19.584v4.16H7.808v4.864h10.4v4.032H7.808V-4.16ZM28.576.384A10.148,10.148,0,0,1,24.4-.464,7.983,7.983,0,0,1,21.28-2.88l2.88-3.456a5.176,5.176,0,0,0,4.16,2.464q3.168,0,3.168-3.712V-18.24H23.616V-22.4H36.64V-7.872q0,4.128-2.048,6.192T28.576.384Zm20.864,0A18.327,18.327,0,0,1,44.3-.336,12.046,12.046,0,0,1,40.32-2.208l1.76-3.9a11.943,11.943,0,0,0,3.424,1.7,12.861,12.861,0,0,0,3.968.64,6.339,6.339,0,0,0,3.264-.656,1.982,1.982,0,0,0,1.056-1.744A1.667,1.667,0,0,0,53.168-7.5a4.73,4.73,0,0,0-1.6-.848q-.976-.32-2.64-.7a36.494,36.494,0,0,1-4.192-1.216,6.811,6.811,0,0,1-2.8-1.952,5.271,5.271,0,0,1-1.168-3.584,6.235,6.235,0,0,1,1.056-3.536,7.1,7.1,0,0,1,3.184-2.512,12.993,12.993,0,0,1,5.2-.928,17.218,17.218,0,0,1,4.192.512A12.384,12.384,0,0,1,57.984-20.8l-1.6,3.936a12.49,12.49,0,0,0-6.208-1.76,5.821,5.821,0,0,0-3.216.7,2.149,2.149,0,0,0-1.04,1.856,1.815,1.815,0,0,0,1.2,1.712,18.841,18.841,0,0,0,3.664,1.1,36.494,36.494,0,0,1,4.192,1.216,6.942,6.942,0,0,1,2.8,1.92A5.148,5.148,0,0,1,58.944-6.56a6.117,6.117,0,0,1-1.072,3.5A7.2,7.2,0,0,1,54.656-.544,13.111,13.111,0,0,1,49.44.384Z" transform="translate(-2.656 22.784)" fill="#b4ca65"/>
</svg>
