<svg xmlns="http://www.w3.org/2000/svg" width="87.241" height="25.054" viewBox="0 0 87.241 25.054">
  <g id="Group_11969" data-name="Group 11969" transform="translate(-1299.5 -4341)">
    <g id="Unofficial_JavaScript_logo_2" transform="translate(1361.891 4341)">
      <rect id="Rectangle_3333" data-name="Rectangle 3333" width="24.85" height="24.381" transform="translate(0 0)" fill="#f7df1e"/>
      <path id="Path_19182" data-name="Path 19182" d="M175.934,293.95a2.519,2.519,0,0,0,2.282,1.4c.958,0,1.571-.479,1.571-1.141,0-.793-.629-1.074-1.684-1.535l-.578-.248c-1.669-.711-2.778-1.6-2.778-3.485a3.091,3.091,0,0,1,3.387-3.055,3.419,3.419,0,0,1,3.29,1.852l-1.8,1.156a1.573,1.573,0,0,0-1.489-.991,1.006,1.006,0,0,0-1.107.991c0,.694.43.975,1.422,1.4l.578.248c1.965.843,3.075,1.7,3.075,3.634,0,2.082-1.636,3.223-3.833,3.223a4.444,4.444,0,0,1-4.215-2.365Zm-8.171.2c.363.645.694,1.19,1.489,1.19.76,0,1.239-.3,1.239-1.453v-7.865H172.8v7.9a3.141,3.141,0,0,1-3.454,3.485,3.591,3.591,0,0,1-3.47-2.113Z" transform="translate(-159.248 -274.837)"/>
    </g>
    <path id="express-109" d="M.353,12.253V6.215H7.892V5.862H.353V.353H8.369V0H0V12.606H8.439v-.353H.353ZM15.237,3.531,12.112,7.645,9.057,3.531H8.6L11.9,7.91l-3.62,4.7H8.7l3.407-4.432,3.425,4.432h.441l-3.637-4.7L15.66,3.531h-.424Zm1.8,12.182v-5.65h.035a3.626,3.626,0,0,0,1.254,1.986,3.69,3.69,0,0,0,2.383.75,3.449,3.449,0,0,0,2.869-1.412,4.808,4.808,0,0,0,.742-1.518,6.377,6.377,0,0,0,.256-1.818,6.428,6.428,0,0,0-.265-1.889,4.522,4.522,0,0,0-.768-1.5,3.53,3.53,0,0,0-1.218-.989,3.6,3.6,0,0,0-1.615-.353,3.918,3.918,0,0,0-1.28.2,3.426,3.426,0,0,0-1.05.574,3.886,3.886,0,0,0-.795.874,4.025,4.025,0,0,0-.512,1.1h-.035V3.531h-.353V15.713h.353Zm3.672-3.249a3.384,3.384,0,0,1-2.666-1.139,4.794,4.794,0,0,1-1.006-3.275,5.614,5.614,0,0,1,.247-1.677A4.344,4.344,0,0,1,18,4.979a3.434,3.434,0,0,1,1.156-.953,3.355,3.355,0,0,1,1.554-.353,3.235,3.235,0,0,1,1.545.353,3.131,3.131,0,0,1,1.095.962A4.48,4.48,0,0,1,24,6.382a6.145,6.145,0,0,1,.221,1.668,6.288,6.288,0,0,1-.2,1.58,4.517,4.517,0,0,1-.627,1.413,3.411,3.411,0,0,1-1.086,1.024,3.051,3.051,0,0,1-1.6.4Zm5.809.141V7.468a5.007,5.007,0,0,1,.212-1.448,3.545,3.545,0,0,1,.653-1.245A3.061,3.061,0,0,1,28.5,3.928a3.4,3.4,0,0,1,1.615-.256V3.319A4.374,4.374,0,0,0,28.7,3.5a3.451,3.451,0,0,0-1.051.53,2.706,2.706,0,0,0-.706.786,3.513,3.513,0,0,0-.388.962h-.035V3.531h-.353v9.075h.353Zm4.043-4.467h7.592a6.283,6.283,0,0,0-.185-1.8A4.479,4.479,0,0,0,37.262,4.8a3.6,3.6,0,0,0-1.254-1.077,3.859,3.859,0,0,0-1.827-.406,3.716,3.716,0,0,0-2.754,1.245,4.7,4.7,0,0,0-.883,1.492,5.638,5.638,0,0,0-.335,2.013,7.381,7.381,0,0,0,.23,1.88,4.405,4.405,0,0,0,.706,1.518,3.187,3.187,0,0,0,1.227,1,4.06,4.06,0,0,0,1.81.335,3.97,3.97,0,0,0,2.613-.874,3.617,3.617,0,0,0,1.254-2.463h-.353a3.4,3.4,0,0,1-1.174,2.251,3.7,3.7,0,0,1-2.375.75,3.646,3.646,0,0,1-1.642-.335,2.975,2.975,0,0,1-1.095-.918,4,4,0,0,1-.627-1.368,7.36,7.36,0,0,1-.221-1.7ZM37.8,7.786H30.562a5.458,5.458,0,0,1,.353-1.713,4.246,4.246,0,0,1,.786-1.3,3.284,3.284,0,0,1,1.13-.821,3.414,3.414,0,0,1,1.386-.283A3.509,3.509,0,0,1,35.77,4a3.209,3.209,0,0,1,1.121.892,3.932,3.932,0,0,1,.68,1.315A5.373,5.373,0,0,1,37.8,7.786Zm7.68-1.571h.353a2.627,2.627,0,0,0-.883-2.207,3.807,3.807,0,0,0-2.4-.689,4.212,4.212,0,0,0-1.43.212,2.859,2.859,0,0,0-.953.547,1.97,1.97,0,0,0-.53.742,2.13,2.13,0,0,0-.159.777,2.287,2.287,0,0,0,.265,1.183,1.743,1.743,0,0,0,.83.689,6.391,6.391,0,0,0,.883.318q.494.141,1.148.3.583.141,1.148.283a4.146,4.146,0,0,1,1,.38,2.156,2.156,0,0,1,.706.609,1.6,1.6,0,0,1,.274.971,1.727,1.727,0,0,1-.274.989,2.206,2.206,0,0,1-.7.662,3.106,3.106,0,0,1-.945.371,4.711,4.711,0,0,1-1.015.115,3.748,3.748,0,0,1-2.463-.715A2.77,2.77,0,0,1,39.478,9.5h-.353a3.129,3.129,0,0,0,.927,2.507A4.12,4.12,0,0,0,42.8,12.8a5.362,5.362,0,0,0,1.174-.132,3.263,3.263,0,0,0,1.059-.433,2.394,2.394,0,0,0,.759-.777,2.2,2.2,0,0,0,.291-1.165,1.961,1.961,0,0,0-.256-1.059,2.148,2.148,0,0,0-.671-.671,3.558,3.558,0,0,0-.936-.415Q43.694,8,43.168,7.857q-.648-.17-1.3-.335a7.878,7.878,0,0,1-1.033-.335A1.752,1.752,0,0,1,40.1,6.63,1.686,1.686,0,0,1,39.831,5.6a2.433,2.433,0,0,1,.071-.441,1.583,1.583,0,0,1,.335-.644,2.259,2.259,0,0,1,.812-.583,3.606,3.606,0,0,1,1.5-.256,4.7,4.7,0,0,1,1.192.141,2.478,2.478,0,0,1,.927.45,2.049,2.049,0,0,1,.6.786,2.864,2.864,0,0,1,.212,1.165Zm8.174,0h.353a2.626,2.626,0,0,0-.883-2.207,3.807,3.807,0,0,0-2.4-.689,4.211,4.211,0,0,0-1.43.212,2.857,2.857,0,0,0-.953.547,1.969,1.969,0,0,0-.53.742,2.13,2.13,0,0,0-.159.777,2.287,2.287,0,0,0,.265,1.183,1.742,1.742,0,0,0,.83.689,6.394,6.394,0,0,0,.883.318q.494.141,1.148.3.583.141,1.148.283a4.147,4.147,0,0,1,1,.38,2.156,2.156,0,0,1,.706.609,1.6,1.6,0,0,1,.274.971,1.728,1.728,0,0,1-.274.989,2.206,2.206,0,0,1-.7.662,3.107,3.107,0,0,1-.945.371,4.711,4.711,0,0,1-1.015.115,3.747,3.747,0,0,1-2.463-.715A2.77,2.77,0,0,1,47.652,9.5H47.3a3.128,3.128,0,0,0,.927,2.507,4.119,4.119,0,0,0,2.745.794,5.361,5.361,0,0,0,1.174-.132,3.264,3.264,0,0,0,1.059-.433,2.394,2.394,0,0,0,.759-.777,2.2,2.2,0,0,0,.291-1.165A1.96,1.96,0,0,0,54,9.234a2.146,2.146,0,0,0-.671-.671,3.56,3.56,0,0,0-.936-.415Q51.869,8,51.342,7.857q-.648-.17-1.3-.335a7.875,7.875,0,0,1-1.033-.335,1.751,1.751,0,0,1-.733-.556A1.686,1.686,0,0,1,48.005,5.6a2.426,2.426,0,0,1,.071-.441,1.584,1.584,0,0,1,.335-.644,2.26,2.26,0,0,1,.812-.583,3.607,3.607,0,0,1,1.5-.256,4.7,4.7,0,0,1,1.192.141,2.478,2.478,0,0,1,.927.45,2.049,2.049,0,0,1,.6.786,2.864,2.864,0,0,1,.212,1.165Z" transform="translate(1300 4349.841)" fill="#222" stroke="#222" stroke-width="1"/>
  </g>
</svg>
