<svg xmlns="http://www.w3.org/2000/svg" width="65.142" height="65.143" viewBox="0 0 65.142 65.143">
  <path id="front-end-icon-5" d="M43.389,37.047a6.789,6.789,0,0,0-4.695-1.494H27.1V47.414H38.883a6.678,6.678,0,0,0,4.506-1.573,5.86,5.86,0,0,0,1.791-4.452A5.664,5.664,0,0,0,43.389,37.047ZM41.76,29.392a4.884,4.884,0,0,0,1.629-3.908,4.943,4.943,0,0,0-1.438-4.045,6.364,6.364,0,0,0-3.991-1.168H27.1V30.749H37.96a5.977,5.977,0,0,0,3.91-1.357ZM56.96.675H13.532A10.857,10.857,0,0,0,2.675,11.532V54.96A10.857,10.857,0,0,0,13.532,65.817H56.96A10.858,10.858,0,0,0,67.817,54.96V11.532A10.858,10.858,0,0,0,56.96.675ZM51.017,46.41a8.182,8.182,0,0,1-2.5,3.367A12.3,12.3,0,0,1,44.148,52a20.791,20.791,0,0,1-6.324.84H20.372v-38H38.829a13.094,13.094,0,0,1,8.141,2.335,8.275,8.275,0,0,1,3.1,7.084,8.394,8.394,0,0,1-1.248,4.913A9.149,9.149,0,0,1,44.8,32.35h0a8.279,8.279,0,0,1,5.428,3.312,11.069,11.069,0,0,1,1.819,6.459A10.654,10.654,0,0,1,51.017,46.41Z" transform="translate(-2.675 -0.675)" fill="#583a7e"/>
</svg>
