<svg xmlns="http://www.w3.org/2000/svg" width="72.252" height="58.146" viewBox="0 0 72.252 58.146">
  <g id="Group_11988" data-name="Group 11988" transform="translate(-871 -4152)">
    <path id="Path_2187" data-name="Path 2187" d="M49.428,16.149h2.2l6.281-6.281L58.222,7.2A28.23,28.23,0,0,0,12.3,20.973a3.423,3.423,0,0,1,2.2-.133l12.559-2.071s.639-1.057.969-.99a15.669,15.669,0,0,1,21.442-1.63Z" transform="translate(867.417 4151.861)" fill="#ea4335"/>
    <path id="Path_2188" data-name="Path 2188" d="M76.925,23.747A28.3,28.3,0,0,0,68.4,10L59.583,18.81a15.664,15.664,0,0,1,5.752,12.429v1.567a7.844,7.844,0,0,1,0,15.687H49.643l-1.566,1.588v9.41l1.566,1.566H65.335a20.407,20.407,0,0,0,11.591-37.31Z" transform="translate(857.353 4149.088)" fill="#4285f4"/>
    <path id="Path_2189" data-name="Path 2189" d="M23.573,75.725H39.265V63.165H23.573a7.775,7.775,0,0,1-3.241-.705l-2.2.681L11.8,69.423l-.552,2.205a20.309,20.309,0,0,0,12.32,4.1Z" transform="translate(867.711 4134.331)" fill="#34a853"/>
    <path id="Path_2190" data-name="Path 2190" d="M20.456,24.223A20.4,20.4,0,0,0,8.139,60.8l9.1-9.1A7.845,7.845,0,1,1,27.619,41.322l9.1-9.1a20.4,20.4,0,0,0-16.264-8Z" transform="translate(870.828 4145.086)" fill="#fbbc05"/>
  </g>
</svg>
