<svg xmlns="http://www.w3.org/2000/svg" width="48.348" height="59.942" viewBox="0 0 48.348 59.942">
  <g id="Group_11987" data-name="Group 11987" transform="translate(-629 -4152)">
    <path id="Path_2191" data-name="Path 2191" d="M42.63,60.108H5.717A5.714,5.714,0,0,1,0,54.393V5.883A5.717,5.717,0,0,1,5.717.166H42.63a5.717,5.717,0,0,1,5.718,5.717v48.51a5.715,5.715,0,0,1-5.718,5.716Z" transform="translate(629 4151.834)" fill="#6762a6"/>
    <path id="Path_2192" data-name="Path 2192" d="M33.969,54.54v-23.8s1.549-5.7-19.072,2.33c-.038.1-.038-22.013-.038-22.013l6.738-.041V25.18s18.864-7.43,18.864,5.635V54.54H33.969ZM37.81,19.587H30.663a44.178,44.178,0,0,0,4.9-8.535h7.391a35.4,35.4,0,0,1-5.143,8.535ZM14.982,54.5V40.943l6.779,6.779L14.982,54.5Z" transform="translate(625.329 4149.155)" fill="#fff"/>
  </g>
</svg>
