<svg xmlns="http://www.w3.org/2000/svg" width="55.906" height="78.912" viewBox="0 0 55.906 78.912">
  <g id="Group_11928" data-name="Group 11928" transform="translate(-477 -4587)">
    <path id="Path_19003" data-name="Path 19003" d="M79.722,157.686,74.634,100.62H130.54l-5.093,57.057-22.894,6.347Z" transform="translate(402.366 4501.888)"/>
    <path id="Path_19004" data-name="Path 19004" d="M256,184.78l18.5-5.129,4.353-48.758H256Z" transform="translate(248.953 4476.28)"/>
    <g id="Group_10107" data-name="Group 10107" transform="translate(487.403 4614.173)">
      <path id="Path_19005" data-name="Path 19005" d="M159.682,190.471h-9.261l-.64-7.167h9.9v-7h-17.55l.168,1.878,1.72,19.287h15.662Zm0,18.177-.031.008-7.795-2.1-.5-5.582h-7.026l.981,10.989,14.337,3.98.032-.009Z" transform="translate(-142.132 -176.305)" fill="#ebebeb"/>
    </g>
    <path id="Path_19006" data-name="Path 19006" d="M108.382,0h3.557V3.514h3.254V0h3.557V10.641h-3.557V7.078h-3.254v3.563h-3.557V0Zm15.044,3.529H120.3V0h9.821V3.529h-3.133v7.113h-3.557ZM131.675,0h3.709l2.281,3.739L139.944,0h3.71V10.641h-3.542V5.367l-2.447,3.784H137.6l-2.449-3.784v5.274h-3.48V0Zm13.749,0h3.558V7.124h5v3.517h-8.56Z" transform="translate(373.82 4587)"/>
    <g id="Group_10108" data-name="Group 10108" transform="translate(504.929 4614.173)">
      <path id="Path_19007" data-name="Path 19007" d="M255.844,190.471v7h8.618l-.812,9.077-7.806,2.107v7.281l14.348-3.977.105-1.182,1.645-18.426.171-1.879H255.844Zm0-14.166v7H272.75l.14-1.573.319-3.548.167-1.878Z" transform="translate(-255.844 -176.305)" fill="#fff"/>
    </g>
  </g>
</svg>
