<svg xmlns="http://www.w3.org/2000/svg" width="68.486" height="66.774" viewBox="0 0 68.486 66.774">
  <g id="Group_11983" data-name="Group 11983" transform="translate(-711.243 -4329)">
    <path id="Path_18940" data-name="Path 18940" d="M12.128,0H56.358A12.118,12.118,0,0,1,68.486,12.128V54.646A12.118,12.118,0,0,1,56.358,66.774H12.128A12.118,12.118,0,0,1,0,54.646V12.128A12.118,12.118,0,0,1,12.128,0Z" transform="translate(711.243 4329)" fill="#300"/>
    <g id="Group_10105" data-name="Group 10105" transform="translate(725.308 4343.81)">
      <path id="Path_18941" data-name="Path 18941" d="M68.327,77.04H57.711l-2.169,6.706a.5.5,0,0,1-.542.4H49.636c-.314,0-.4-.171-.314-.514L58.51,57.179c.086-.285.171-.6.285-.942a9.967,9.967,0,0,0,.171-1.855.283.283,0,0,1,.228-.314h7.391c.228,0,.342.086.371.228L77.373,83.689c.086.314,0,.457-.285.457H71.123a.431.431,0,0,1-.457-.314Zm-8.96-5.793h7.248c-.171-.6-.4-1.313-.656-2.055-.257-.77-.514-1.6-.77-2.454-.285-.885-.542-1.741-.828-2.625s-.542-1.712-.77-2.54c-.228-.8-.428-1.541-.628-2.226H62.9a35.04,35.04,0,0,1-.97,3.681c-.428,1.37-.856,2.8-1.313,4.223C60.222,68.708,59.794,70.049,59.366,71.247Zm24.37-12.185a3.532,3.532,0,0,1-2.54-1,3.707,3.707,0,0,1-.97-2.625,3.357,3.357,0,0,1,1.027-2.54,3.655,3.655,0,0,1,2.54-1,3.417,3.417,0,0,1,2.6,1,3.923,3.923,0,0,1-.057,5.165,3.355,3.355,0,0,1-2.6,1Zm-3.2,24.769V61.859c0-.285.114-.4.371-.4h5.65c.257,0,.371.143.371.4V83.832c0,.314-.114.457-.371.457H80.968A.4.4,0,0,1,80.54,83.832Z" transform="translate(-49.29 -51.9)" fill="#ff9a00"/>
    </g>
  </g>
</svg>
