<svg xmlns="http://www.w3.org/2000/svg" width="66" height="66" viewBox="0 0 66 66">
  <g id="Group_11980" data-name="Group 11980" transform="translate(-1489.243 -4326)">
    <path id="Path_18955" data-name="Path 18955" d="M60.017,0H5.983A5.983,5.983,0,0,0,0,5.983V60.017A5.983,5.983,0,0,0,5.983,66H60.017A5.983,5.983,0,0,0,66,60.017V5.983A5.983,5.983,0,0,0,60.017,0" transform="translate(1489.243 4326)" fill="#dc395f"/>
    <path id="Path_18956" data-name="Path 18956" d="M56.71,57.673A3.973,3.973,0,1,0,52.678,53.7a3.986,3.986,0,0,0,4.031,3.973M48.35,78.948a13.646,13.646,0,0,0-.356,2.984c0,3.5,1.9,5.821,5.929,5.821,3.344,0,6.055-1.986,8.007-5.192l-1.192,4.783h6.64l3.795-15.221c.949-3.854,2.787-5.854,5.574-5.854A3.318,3.318,0,0,1,80.3,69.886a7.1,7.1,0,0,1-.3,2.134l-1.957,7a10.516,10.516,0,0,0-.415,2.965c0,3.321,1.956,5.751,6.047,5.751,3.5,0,6.285-2.252,7.826-7.648L88.9,79.077c-1.3,3.615-2.431,4.268-3.321,4.268s-1.364-.592-1.364-1.778a7.866,7.866,0,0,1,.3-1.839l1.9-6.816a15.033,15.033,0,0,0,.652-4.324c0-5.1-3.083-7.76-6.819-7.76-3.5,0-7.056,3.155-8.834,6.476l1.3-5.961H62.576l-1.423,5.25H65.9L62.976,78.289c-2.294,5.1-6.507,5.182-7.036,5.063-.868-.2-1.424-.526-1.424-1.654a11.181,11.181,0,0,1,.415-2.713l4.447-17.641H48.113l-1.423,5.25h4.684L48.35,78.948" transform="translate(1454.59 4289.093)" fill="#fff"/>
  </g>
</svg>
