<svg xmlns="http://www.w3.org/2000/svg" width="64.974" height="73.227" viewBox="0 0 64.974 73.227">
  <g id="Group_11916" data-name="Group 11916" transform="translate(-193 -4001)">
    <path id="Path_2065" data-name="Path 2065" d="M32.85,73.789a5.173,5.173,0,0,1-2.865-.8l-8.938-5.27c-1.375-.8-.689-1.032-.23-1.146a20.791,20.791,0,0,0,4.011-1.833.541.541,0,0,1,.687.114l6.876,4.126a.965.965,0,0,0,.8,0l26.814-15.47a.937.937,0,0,0,.46-.688V21.877a.627.627,0,0,0-.46-.687L33.309,5.606a.978.978,0,0,0-.8,0L5.691,20.96a.944.944,0,0,0-.458.689V52.589a.712.712,0,0,0,.458.687l7.334,4.24c4.011,1.948,6.417-.344,6.417-2.75V24.4a.784.784,0,0,1,.8-.8h3.437a.784.784,0,0,1,.8.8V54.881c0,5.386-2.864,8.364-7.907,8.364-1.6,0-2.75,0-6.187-1.719L3.4,57.516A5.778,5.778,0,0,1,.535,52.588V21.649A5.675,5.675,0,0,1,3.4,16.721L30.215,1.251a6.069,6.069,0,0,1,5.614,0L62.644,16.721a5.777,5.777,0,0,1,2.865,4.927V52.589a5.676,5.676,0,0,1-2.865,4.927L35.715,73.1A6.235,6.235,0,0,1,32.85,73.789Z" transform="translate(192.465 4000.438)" fill="#539e43"/>
    <path id="Path_2066" data-name="Path 2066" d="M47,57.333c-11.69,0-14.21-5.387-14.21-9.857a.783.783,0,0,1,.8-.8H37.03a.836.836,0,0,1,.8.687c.459,3.553,2.062,5.271,9.169,5.271,5.613,0,8.021-1.261,8.021-4.24,0-1.719-.69-2.979-9.513-3.9-7.334-.688-11.917-2.292-11.917-8.25,0-5.386,4.584-8.594,12.263-8.594,8.595,0,12.833,2.978,13.407,9.4a.783.783,0,0,1-.8.8H55.022a.861.861,0,0,1-.8-.572c-.8-3.668-2.864-4.927-8.364-4.927-6.19,0-6.877,2.178-6.877,3.781,0,1.948.8,2.521,9.168,3.667,8.25,1.032,12.148,2.635,12.148,8.367C60.293,54.009,55.479,57.333,47,57.333Z" transform="translate(186.681 3995.58)" fill="#539e43"/>
  </g>
</svg>
