<svg xmlns="http://www.w3.org/2000/svg" width="63.082" height="63.082" viewBox="0 0 63.082 63.082">
  <g id="Group_11971" data-name="Group 11971" transform="translate(-526 -4311)">
    <path id="Path_2123" data-name="Path 2123" d="M52.9,59.66c.492.712.794.657,1.177.492s20.1-6.817,20.7-7.036.411-.411.22-.712-6.763-9.226-7.092-9.746-.493-.411-1.013-.247l-20.9,5.438S52.406,58.948,52.9,59.66Zm23.546-9.089V40.124c-2.351.627-5.324,1.419-6.5,1.73C71.717,44.224,74.486,47.932,76.445,50.572ZM69.927,28.988c-.322.073-7.453,1.362-7.893,1.42s-.292.308-.117.556l6.276,8.611s7.673-1.9,8.142-2.006l.111-.027V36.4c-1.395-1.769-5.195-6.584-5.523-7.034-.4-.541-.674-.453-1-.38Z" transform="translate(512.636 4302.593)" fill="#f35045"/>
    <path id="Path_2124" data-name="Path 2124" d="M11.953,7.055c1.544-.07,1.685.281,2.364,1.287l17.044,28.5L52.792,31.7c-1.188-1.684-6.578-9.326-7.1-10.055-.585-.82.015-1.2.967-1.362s9.152-1.537,9.855-1.64,1.259-.351,2.4,1.025c.585.7,2.566,3.171,4.425,5.484V11.828a11.392,11.392,0,0,0-3.47-8.357A11.393,11.393,0,0,0,51.513,0H12.087A11.39,11.39,0,0,0,3.73,3.471,11.617,11.617,0,0,0,.893,7.919c3.863-.319,9.98-.814,11.06-.863Z" transform="translate(525.741 4311)" fill="#f35045"/>
    <path id="Path_2125" data-name="Path 2125" d="M41.468,62.522c-1.807.547-2.618.819-3.795-.824-.882-1.23-5.649-9.818-7.987-14.051-4.424,1.159-12.521,3.271-14.856,3.832a2.877,2.877,0,0,1-3.627-1.66c-.262-.591-6.944-15-11.2-24.238V58.686a11.394,11.394,0,0,0,3.471,8.358,11.4,11.4,0,0,0,8.357,3.47H51.254A11.847,11.847,0,0,0,63.082,58.686V54.8C58.242,56.568,42.686,62.153,41.468,62.522Z" transform="translate(526 4303.567)" fill="#f35045"/>
    <path id="Path_2126" data-name="Path 2126" d="M14.891,44.433c.64-.147,12.644-3.019,12.9-3.075s.421-.2.146-.677-16-27.62-16-27.62c-.145-.249-.1-.332-.5-.311-.352.018-9.25.813-11.309.985a12.339,12.339,0,0,0-.114,1.314C2.107,19.33,14.111,44.084,14.178,44.286c.072.22.072.293.713.147Z" transform="translate(525.995 4307.296)" fill="#f35045"/>
  </g>
</svg>
