<svg xmlns="http://www.w3.org/2000/svg" xmlns:xlink="http://www.w3.org/1999/xlink" width="97.492" height="43.788" viewBox="0 0 97.492 43.788">
  <defs>
    <linearGradient id="linear-gradient" x1="2.548" y1="-2.685" x2="2.548" y2="-1.685" gradientUnits="objectBoundingBox">
      <stop offset="0.15" stop-color="#2a4f84"/>
      <stop offset="0.388" stop-color="#294e82"/>
      <stop offset="1" stop-color="#172e4e"/>
    </linearGradient>
  </defs>
  <g id="Group_11931" data-name="Group 11931" transform="translate(-1229.5 -4607.517)">
    <path id="path19" d="M-32.479,353.418a8.276,8.276,0,0,1-8.252,8.251h-69.352a8.275,8.275,0,0,1-8.251-8.251V327.141a8.276,8.276,0,0,1,8.251-8.252h69.352a8.276,8.276,0,0,1,8.252,8.252Z" transform="translate(1354.004 4289.134)" fill="url(#linear-gradient)"/>
    <path id="path21" d="M-6.481,347.829q5.438,1.9,5.436,6.515a5.827,5.827,0,0,1-2.25,4.818,10.116,10.116,0,0,1-6.416,1.926,15.7,15.7,0,0,1-7.723-2.129,6.843,6.843,0,0,1,.552-2.307,6.289,6.289,0,0,1,1.205-1.984,12.735,12.735,0,0,0,5.68,1.7,3.326,3.326,0,0,0,1.758-.385,1.167,1.167,0,0,0,.614-1.031q0-1.218-1.881-1.823l-2.251-.85q-5.107-1.861-5.107-6.072a6.04,6.04,0,0,1,2.146-4.879,8.914,8.914,0,0,1,5.783-2.234,17.572,17.572,0,0,1,3.964.506,15.659,15.659,0,0,1,3.554,1.628,5.73,5.73,0,0,1-.45,2.489,4.2,4.2,0,0,1-1.309,1.924A14.676,14.676,0,0,0-8.9,344.1a1.88,1.88,0,0,0-1.248.365,1.164,1.164,0,0,0-.426.931q0,.971,1.553,1.538l2.538.893Z" transform="translate(1313.498 4281.023)" fill="#f6f6f6"/>
    <path id="path23" d="M-36.728,347.829q5.437,1.9,5.435,6.515a5.831,5.831,0,0,1-2.248,4.818,10.123,10.123,0,0,1-6.417,1.926,15.709,15.709,0,0,1-7.724-2.129,6.845,6.845,0,0,1,.552-2.307,6.277,6.277,0,0,1,1.2-1.984,12.756,12.756,0,0,0,5.681,1.7,3.318,3.318,0,0,0,1.757-.385,1.17,1.17,0,0,0,.615-1.031q0-1.218-1.882-1.823l-2.249-.85q-5.109-1.861-5.109-6.072a6.039,6.039,0,0,1,2.147-4.879,8.91,8.91,0,0,1,5.781-2.234,17.556,17.556,0,0,1,3.964.506,15.623,15.623,0,0,1,3.554,1.628,5.735,5.735,0,0,1-.448,2.489,4.21,4.21,0,0,1-1.309,1.924,14.69,14.69,0,0,0-5.724-1.539,1.872,1.872,0,0,0-1.246.365,1.167,1.167,0,0,0-.427.931q0,.971,1.554,1.538l2.537.893Z" transform="translate(1325.641 4281.023)" fill="#f6f6f6"/>
    <path id="path25" d="M-63.279,348.119a9.735,9.735,0,0,0-.592-3.441,7.716,7.716,0,0,0-1.7-2.712,7.856,7.856,0,0,0-2.676-1.781,9.435,9.435,0,0,0-3.536-1.081,9.631,9.631,0,0,0-4.067,1.243,7.766,7.766,0,0,0-2.859,2.225,9.525,9.525,0,0,0-1.677,3.34,15.155,15.155,0,0,0-.551,4.189,19.6,19.6,0,0,0,.45,4.332,9.054,9.054,0,0,0,1.532,3.439,7.26,7.26,0,0,0,2.82,2.265,10.116,10.116,0,0,0,4.312.953,13.621,13.621,0,0,0,8.01-2.452,6.431,6.431,0,0,0-1.668-3.725,21.254,21.254,0,0,1-2.952.9,11.061,11.061,0,0,1-2.259.273,3.5,3.5,0,0,1-2.81-1,4.1,4.1,0,0,1-.936-2.655h10.626A15.316,15.316,0,0,0-63.279,348.119Zm-11.195.28a8.385,8.385,0,0,1,.75-3.457,2.177,2.177,0,0,1,1.927-.911A2.275,2.275,0,0,1-69.79,345a6.034,6.034,0,0,1,.669,2.951v.447h-5.353Z" transform="translate(1338.99 4281.019)" fill="#f6f6f6"/>
    <path id="path27" d="M21.189,342.976a5.528,5.528,0,0,0-1.825,4.359v7.07a6.238,6.238,0,0,1-2.355,5.366,9.634,9.634,0,0,1-5.7,1.894l-1.285-.01v-3.523a4.279,4.279,0,0,0,2.05-1.152,4.718,4.718,0,0,0,1.443-3.608v-5.707a8.777,8.777,0,0,1,.886-4.559,8.617,8.617,0,0,1,4.139-2.887,8.714,8.714,0,0,1-4.562-4.061,10.2,10.2,0,0,1-.464-4.015v-5.234a5.025,5.025,0,0,0-1.262-3.631,3.98,3.98,0,0,0-2.232-1.083v-3.307c1.532.016,2.306,0,3.2,0a5.78,5.78,0,0,1,3.527,1.522,6.909,6.909,0,0,1,2.321,3.478,8.019,8.019,0,0,1,.294,2.416v6.054a6.365,6.365,0,0,0,1.711,4.765,7.277,7.277,0,0,0,2.942,1.65v2.734a6.709,6.709,0,0,0-2.828,1.471Z" transform="translate(1302.476 4289.136)" fill="#f6f6f6" stroke="#404040" stroke-width="1"/>
    <path id="path29" d="M-115.422,318.89v0c-.439,0-.836,0-1.154,0a5.763,5.763,0,0,0-3.527,1.523,5.893,5.893,0,0,0-2.32,3.478,12.166,12.166,0,0,0-.132,2.417v6.053a6.435,6.435,0,0,1-1.874,4.766,9.812,9.812,0,0,1-3.38,1.648v2.734a8.793,8.793,0,0,1,3.264,1.469,5.642,5.642,0,0,1,1.989,4.36v7.069c0,2.349.56,4.138,2.191,5.365a9.645,9.645,0,0,0,5.7,1.9l1.451-.01v-3.526a5.075,5.075,0,0,1-2.215-1.152,4.666,4.666,0,0,1-1.279-3.608v-5.708a8.67,8.67,0,0,0-1.052-4.559,8.6,8.6,0,0,0-4.14-2.886,8.712,8.712,0,0,0,4.562-4.061,9.835,9.835,0,0,0,.63-4.016v-5.234a5.037,5.037,0,0,1,1.1-3.632,4.523,4.523,0,0,1,1.98-.935l1.474.01v-3.466Z" transform="translate(1357.807 4289.134)" fill="#f6f6f6" stroke="#404040" stroke-width="1"/>
    <path id="path31" d="M-90.561,347.556h-1.1c-1.2,0-1.652-.631-1.652-1.9V322.365a4.327,4.327,0,0,0-.923-2.95c-.517-.565-1.417-.559-2.7-.559h-2.492l-.294-.006v.024l0,3.467v24.444a6.462,6.462,0,0,0,1.213,4.272q1.167,1.356,3.944,1.355a27.08,27.08,0,0,0,4.373-.405,7.715,7.715,0,0,0,.123-1.754,7.817,7.817,0,0,0-.489-2.7Z" transform="translate(1346.534 4289.15)" fill="#f6f6f6"/>
  </g>
</svg>
