<svg xmlns="http://www.w3.org/2000/svg" width="41" height="91.28" viewBox="0 0 41 91.28">
  <g id="Group_11974" data-name="Group 11974" transform="translate(-1013.517 -4223)">
    <path id="Path_18980" data-name="Path 18980" d="M15.945.087l2.436,4.575a13.668,13.668,0,0,0,1.84,2.288,63.908,63.908,0,0,1,5.716,6.463,56.169,56.169,0,0,1,8.9,17.947,44.131,44.131,0,0,1,1.888,12.179,42.981,42.981,0,0,1-12.55,31.717A36.224,36.224,0,0,1,19.7,79.084c-.844,0-1.244-.647-1.592-1.244a10.237,10.237,0,0,1-1.244-3.58,17.3,17.3,0,0,1-.4-4.524v-.7c-.068-.148-.813-68.6-.516-68.954Z" transform="translate(1017.786 4223.163)" fill="#599636"/>
    <path id="Path_18981" data-name="Path 18981" d="M29.027.1c-.1-.2-.2-.048-.3.048a4.6,4.6,0,0,1-.844,2.738A13.119,13.119,0,0,1,25.7,5.072,47.643,47.643,0,0,0,15.008,18.695,54.723,54.723,0,0,0,8.847,40.965c-.248,2.832.9,12.827,1.788,15.71A47.626,47.626,0,0,0,23.115,76.314a54.526,54.526,0,0,0,4.421,3.779c.448,0,.5-.4.6-.7a13.633,13.633,0,0,0,.448-1.94l1-7.456Z" transform="translate(1004.704 4223)" fill="#6cac48"/>
    <path id="Path_18982" data-name="Path 18982" d="M19.3,37.721a6.806,6.806,0,0,1,1.244-3.032A3.138,3.138,0,0,1,19.156,33.4a9.227,9.227,0,0,1-.742-1.64,28.387,28.387,0,0,1-1.044-6.412V24.053a6.2,6.2,0,0,0-.3,2.139,49.546,49.546,0,0,1-.9,6.711,5.972,5.972,0,0,1-.8,2.584.99.99,0,0,0,.048.348,29.685,29.685,0,0,1,1.292,8.055v1c0,1.192-.048.941.941,1.341a4.36,4.36,0,0,1,1.244.5c.3,0,.348-.248.348-.448l-.148-1.64V40.063a12.1,12.1,0,0,1,.2-2.339Z" transform="translate(1016.863 4267.554)" fill="#c2bfbf"/>
  </g>
</svg>
