<svg xmlns="http://www.w3.org/2000/svg" width="74.639" height="73.268" viewBox="0 0 74.639 73.268">
  <g id="Group_11979" data-name="Group 11979" transform="translate(-1039 -4199)">
    <path id="Path_2292" data-name="Path 2292" d="M75.38,57.869a23.5,23.5,0,0,0-9.849,1.421c-.762.3-1.98.3-2.081,1.269.406.408.456,1.067.811,1.625a11.907,11.907,0,0,0,2.64,3.1c1.066.811,2.133,1.624,3.249,2.335,1.979,1.218,4.213,1.929,6.142,3.147,1.117.711,2.233,1.625,3.35,2.386.559.405.914,1.066,1.626,1.32v-.153c-.357-.458-.459-1.117-.813-1.625-.507-.507-1.015-.965-1.523-1.472a24.123,24.123,0,0,0-5.278-5.128c-1.626-1.116-5.178-2.64-5.838-4.518l-.1-.1a20.554,20.554,0,0,0,3.5-.812c1.726-.458,3.3-.356,5.076-.813.812-.2,1.624-.456,2.437-.71v-.456c-.913-.914-1.574-2.133-2.539-3a67.606,67.606,0,0,0-8.376-6.244c-1.574-1.015-3.605-1.675-5.28-2.538-.608-.3-1.625-.457-1.979-.965a20.421,20.421,0,0,1-2.081-3.908C57,39.238,55.581,36.142,54.312,33.2a53.935,53.935,0,0,0-2.589-5.787C46.5,18.781,40.81,13.552,32.079,8.425a24.386,24.386,0,0,0-6.5-2.081c-1.268-.051-2.538-.152-3.808-.2a20.41,20.41,0,0,1-2.335-1.776C16.545,2.536,9.082-1.423,6.95,3.8c-1.371,3.3,2.031,6.548,3.2,8.224a23.833,23.833,0,0,1,2.589,3.808c.356.862.457,1.777.812,2.691a60.882,60.882,0,0,0,2.641,6.8,24.535,24.535,0,0,0,1.878,3.147c.406.558,1.117.812,1.27,1.726-.711,1.015-.762,2.539-1.168,3.808-1.828,5.736-1.117,12.844,1.472,17.057.812,1.269,2.741,4.061,5.33,2.995,2.284-.912,1.777-3.807,2.437-6.345.152-.609.051-1.015.356-1.422v.1c.711,1.421,1.421,2.792,2.081,4.212a28.989,28.989,0,0,0,6.6,6.8c1.219.913,2.183,2.488,3.706,3.045v-.152h-.1a5.585,5.585,0,0,0-1.168-1.015,24.579,24.579,0,0,1-2.639-3.045A65.226,65.226,0,0,1,30.555,47c-.812-1.572-1.523-3.3-2.182-4.872-.306-.61-.306-1.524-.813-1.829a19.073,19.073,0,0,0-2.437,3.452c-.964,2.182-1.066,4.873-1.421,7.666-.2.051-.1,0-.2.1-1.624-.406-2.182-2.081-2.792-3.5a21.946,21.946,0,0,1-.456-13.553c.356-1.066,1.878-4.416,1.269-5.432-.3-.964-1.32-1.523-1.878-2.284A20.412,20.412,0,0,1,17.814,23.5c-1.219-2.843-1.828-5.99-3.147-8.833a27.024,27.024,0,0,0-2.538-3.908A25.124,25.124,0,0,1,9.336,6.8c-.254-.557-.609-1.472-.2-2.081a.808.808,0,0,1,.711-.66c.66-.558,2.539.152,3.2.457a25.882,25.882,0,0,1,5.026,2.538c.711.508,1.472,1.472,2.386,1.726h1.066c1.625.356,3.452.1,4.975.558a32.461,32.461,0,0,1,7.31,3.5A45.042,45.042,0,0,1,49.643,30.2c.609,1.167.863,2.234,1.421,3.451,1.066,2.488,2.386,5.026,3.452,7.462a33.388,33.388,0,0,0,3.6,6.8c.762,1.066,3.808,1.626,5.178,2.183a36.042,36.042,0,0,1,3.5,1.421c1.726,1.066,3.451,2.284,5.076,3.451.813.61,3.351,1.879,3.5,2.9Z" transform="translate(1032.37 4197.798)" fill="#00546b"/>
    <path id="Path_2293" data-name="Path 2293" d="M26.792,16.445a8.033,8.033,0,0,0-2.081.254v.1h.1a16.362,16.362,0,0,0,1.624,2.081c.407.812.762,1.625,1.168,2.437l.1-.1a2.866,2.866,0,0,0,1.066-2.539,11.443,11.443,0,0,1-.609-1.066c-.3-.508-.964-.762-1.37-1.169Z" transform="translate(1029.178 4195.107)" fill="#00546b"/>
  </g>
</svg>
