<svg xmlns="http://www.w3.org/2000/svg" width="76" height="75.532" viewBox="0 0 76 75.532">
  <g id="Group_11973" data-name="Group 11973" transform="translate(-1257.517 -4238)">
    <g id="Group_3217" data-name="Group 3217" transform="translate(1257.517 4238)">
      <path id="Path_2204" data-name="Path 2204" d="M21.783,4.613c8.343-4.677,24.286-4.677,32.628,0a9.008,9.008,0,0,0,1.437.784c.917.432,1.67,1.027,2.61,1.435a8.532,8.532,0,0,0,1.436,1.045c1.547,1.02,2.841,2.293,4.307,3.394.932.939,1.726,2.014,2.741,2.871.559.964,1.359,1.686,1.958,2.61a20.229,20.229,0,0,0,1.565,2.219,15.278,15.278,0,0,0,1.045,1.958,16.44,16.44,0,0,0,1.044,1.957,40.348,40.348,0,0,1,3.393,13.182c.082.4-.168,1.125.13,1.305v3c-.3.182-.049.909-.13,1.305a40.387,40.387,0,0,1-3.393,13.181,16.536,16.536,0,0,0-1.044,1.959,15.159,15.159,0,0,0-1.045,1.958A20.023,20.023,0,0,0,68.9,60.994c-.6.923-1.4,1.646-1.958,2.61-1.015.856-1.809,1.932-2.741,2.87-1.466,1.1-2.759,2.375-4.307,3.394a8.385,8.385,0,0,0-1.436,1.045c-.94.408-1.694,1-2.61,1.436a8.863,8.863,0,0,0-1.437.783c-8.342,4.677-24.285,4.677-32.628,0a8.786,8.786,0,0,0-1.436-.783c-.917-.432-1.671-1.027-2.611-1.436A8.385,8.385,0,0,0,16.3,69.867c-1.547-1.019-2.84-2.293-4.307-3.394-.932-.938-1.726-2.013-2.741-2.87-.559-.964-1.359-1.687-1.958-2.61a20.144,20.144,0,0,0-1.565-2.219,15.05,15.05,0,0,0-1.045-1.958A16.542,16.542,0,0,0,3.64,54.859,40.325,40.325,0,0,1,.247,41.678c-.082-.4.167-1.124-.13-1.305v-3c.3-.181.049-.909.13-1.305A40.364,40.364,0,0,1,3.64,22.883a16.529,16.529,0,0,0,1.045-1.958,15.279,15.279,0,0,0,1.045-1.958,20.108,20.108,0,0,0,1.565-2.219c.6-.924,1.4-1.646,1.958-2.61,1.014-.856,1.809-1.932,2.741-2.871,1.466-1.1,2.759-2.373,4.307-3.393a8.555,8.555,0,0,0,1.436-1.045c.94-.408,1.694-1,2.611-1.435A8.924,8.924,0,0,0,21.783,4.613Zm14.1-2.48A36.162,36.162,0,0,0,18.259,7.876a4.412,4.412,0,0,0-1.436,1.045A11.745,11.745,0,0,0,14.6,10.487a11.5,11.5,0,0,0-1.958,1.827,21.05,21.05,0,0,0-4.307,4.959,10.2,10.2,0,0,0-1.566,2.219,8.1,8.1,0,0,0-1.045,1.957,5.653,5.653,0,0,0-1.045,1.958A34.857,34.857,0,0,0,1.291,36.588c-.3.181-.049.909-.131,1.305v1.958c.082.4-.167,1.124.131,1.3A34.848,34.848,0,0,0,4.684,54.338a5.632,5.632,0,0,0,1.045,1.957,8,8,0,0,0,1.045,1.958,10.215,10.215,0,0,0,1.566,2.22,21.052,21.052,0,0,0,4.307,4.96A11.5,11.5,0,0,0,14.6,67.26a11.709,11.709,0,0,0,2.219,1.565,4.4,4.4,0,0,0,1.436,1.045,36.153,36.153,0,0,0,17.619,5.743,15.16,15.16,0,0,0,4.438,0,36.159,36.159,0,0,0,17.619-5.743,4.431,4.431,0,0,0,1.436-1.045,11.766,11.766,0,0,0,2.22-1.565,11.57,11.57,0,0,0,1.958-1.827,21.1,21.1,0,0,0,4.307-4.96,10.221,10.221,0,0,0,1.565-2.22,8.056,8.056,0,0,0,1.044-1.958,5.6,5.6,0,0,0,1.045-1.957A34.881,34.881,0,0,0,74.9,41.156c.3-.181.049-.908.13-1.3V37.894c-.081-.4.168-1.125-.13-1.305a34.881,34.881,0,0,0-3.394-13.182,5.638,5.638,0,0,0-1.045-1.958,8.066,8.066,0,0,0-1.044-1.957,10.231,10.231,0,0,0-1.565-2.219,21.112,21.112,0,0,0-4.307-4.959,11.533,11.533,0,0,0-1.958-1.827,11.716,11.716,0,0,0-2.22-1.566,4.422,4.422,0,0,0-1.436-1.045A36.168,36.168,0,0,0,40.316,2.133,15.16,15.16,0,0,0,35.878,2.133Z" transform="translate(-0.097 -1.105)" fill="#004054"/>
      <path id="Path_2205" data-name="Path 2205" d="M32.771,31.585c-1.84-2.767-3.772-5.2-3.786-9.658-.024-8.681,4-17.447,12.4-18.664.181.3.909.049,1.305.131A39.6,39.6,0,0,1,60.308,9.137a8.522,8.522,0,0,0,1.437,1.044c.368.2.555.576,1.044.653,1.7,1.48,3.4,2.955,4.959,4.568.56.964,1.36,1.687,1.959,2.611a20.36,20.36,0,0,0,1.566,2.219,15.224,15.224,0,0,0,1.044,1.958,16.742,16.742,0,0,0,1.044,1.959c4.371,7.886,4.371,22,0,29.886a16.73,16.73,0,0,0-1.044,1.958,15.184,15.184,0,0,0-1.044,1.959,20.151,20.151,0,0,0-1.566,2.219c-.6.925-1.4,1.646-1.959,2.61-1.562,1.612-3.263,3.089-4.959,4.568-.489.078-.676.456-1.044.654a8.517,8.517,0,0,0-1.437,1.043,40.421,40.421,0,0,1-16.054,5.612c6.1-2.692,9.357-8.22,10.572-15.793.3-.265.048-1.082.13-1.565.166-5.735-1.239-9.9-3.914-12.791a12.5,12.5,0,0,0-1.7-1.7c-4.443-3.78-10.327-6.118-15.01-9.658A10.474,10.474,0,0,0,32.771,31.585Zm22.056-13.7c-2.554-2.057-4.865-4.357-9.4-4.437-1.3-1.584-6.547-3.652-6.786-.391-.143,1.946,2.031,3.195,2.74,4.7,1.213,2.567,1.432,5.361,3,6.525-1.725,2.6-1.134,11.3,2.219,10.963,1.564-.155,1.03-2.237,1.7-3.524a9.437,9.437,0,0,0,3.655,4.7c.46.542,1.218,1.477,1.826,1.436-.557-.357-.879-.948-1.436-1.305a42.692,42.692,0,0,1-4.307-7.7c-1.2,1.1-1.435,3.176-1.827,5.089-1.134-.736-1.478-2.264-1.7-3.915V27.931c-.178-1.483,1.224-2.563.915-4.047-.111-.53-.9-1.129-1.176-1.565-.858-1.387-1.134-3.3-1.958-4.96-.854-1.722-2.455-2.827-2.479-4.569,1.935-.611,3.744,1,4.959,1.958,3.756-.069,5.861,1.457,7.831,3,3.349,2.625,4.755,5.446,6.656,9.527.77,1.655,1.6,4.458,2.872,5.351,1.218.859,2.794.945,4.046,1.7a11.5,11.5,0,0,1,3.393,2.48,9.406,9.406,0,0,0-5.35,1.045c.559,1.764,2.058,2.793,3.654,3.654s3.188,1.779,4.438,2.61c-1.279-2.636-4.238-3.591-6-5.742,1.626-.29,3.255-.574,4.829-.914-1.713-2.942-4.715-4.594-8.092-5.873-2.414-4.025-3.629-9.249-6.917-12.4A7.464,7.464,0,0,0,54.827,17.881Zm-9.4-.914c.282.806,1,1.174,1.175,2.088C47.913,18.6,47.018,16.483,45.431,16.967Z" transform="translate(-2.993 -1.322)" fill="#e87912"/>
      <path id="Path_2206" data-name="Path 2206" d="M42.768,3.261c.4.082,1.125-.167,1.305.131C43.676,3.31,42.948,3.559,42.768,3.261Z" transform="translate(-4.376 -1.32)" fill="#ffce92"/>
      <path id="Path_2207" data-name="Path 2207" d="M23.059,6.976A41.35,41.35,0,0,1,33.37,3.844c.108.379-.827.624-1.435,1.045-3.977,2.741-6.71,7.8-7.309,14.1-.3.48-.046,1.52-.13,2.219.077,14.061,12.312,15.967,20.229,22.187a10.615,10.615,0,0,0,1.567,1.566c1.78,2.466,3.88,5.391,4.045,9.788.2,5.284-1.353,11.456-4.045,14.356a7.358,7.358,0,0,0-1.306,1.306,12.539,12.539,0,0,1-7.831,4.306c-4.885.59-10.35-2.1-14.1-3.393a8.925,8.925,0,0,0-1.436-.783c-.916-.433-1.67-1.027-2.61-1.437a8.5,8.5,0,0,0-1.435-1.043c-1.547-1.021-2.841-2.293-4.307-3.394a9.125,9.125,0,0,0-1.7-1.827c-.56-.964-1.359-1.685-1.958-2.61A20.03,20.03,0,0,0,8.05,58.008a15.408,15.408,0,0,0-1.044-1.959,16.734,16.734,0,0,0-1.045-1.958A40.358,40.358,0,0,1,2.568,40.911c-.081-.4.167-1.125-.13-1.3v-.914c.3-.181.049-.909.13-1.305A40.358,40.358,0,0,1,5.962,24.205a16.81,16.81,0,0,0,1.045-1.959A15.1,15.1,0,0,0,8.05,20.289a20.115,20.115,0,0,0,1.566-2.219c.6-.923,1.4-1.646,1.958-2.611a9.075,9.075,0,0,0,1.7-1.827c1.466-1.1,2.76-2.373,4.307-3.394A8.507,8.507,0,0,0,19.013,9.2c.94-.408,1.694-1,2.61-1.436A8.969,8.969,0,0,0,23.059,6.976ZM35.328,50.045c.178,1.483-1.224,2.564-.914,4.046.112.537.9,1.127,1.175,1.567.859,1.386,1.134,3.3,1.958,4.959.856,1.722,2.47,2.82,2.48,4.568-1.936.612-3.745-1-4.961-1.958-3.755.077-5.878-1.472-7.831-3C23.893,57.6,22.429,54.76,20.58,50.7c-.756-1.661-1.62-4.469-2.872-5.35s-2.945-.807-4.176-1.566a17.08,17.08,0,0,1-3.263-2.61,9.625,9.625,0,0,0,5.351-1.045c-.724-2.743-3.723-3.388-5.873-4.7-.852-.519-1.338-1.408-2.219-1.566,1.3,2.62,4.242,3.589,6,5.744-1.6.314-3.269.558-4.829.913,1.722,2.934,4.724,4.586,8.093,5.872,2.418,4.021,3.627,9.25,6.917,12.4a7.373,7.373,0,0,0,1.3,1.305c2.555,2.056,4.866,4.356,9.4,4.437,1.312,1.583,6.539,3.642,6.787.392.147-1.925-2.038-3.207-2.741-4.7-1.211-2.565-1.442-5.359-3-6.525,1.717-2.569,1.123-11.324-2.219-10.963-1.557.168-1.015,2.246-1.7,3.523a9.019,9.019,0,0,0-3.524-4.568c-.513-.577-1.288-1.581-1.958-1.566.6.4.967,1.035,1.566,1.436,1.467,2.318,3.057,4.514,3.915,7.44,1.682-.668,1.561-3.137,2.088-4.96,1.147.679,1.42,2.235,1.7,3.785Q35.329,48.935,35.328,50.045Zm-.914,10.964c-.263-.826-1.028-1.146-1.175-2.089C31.962,59.405,32.809,61.475,34.414,61.009Z" transform="translate(-0.33 -1.38)" fill="#134e61"/>
      <path id="Path_2208" data-name="Path 2208" d="M27.083,20.672c-.085.7.172,1.737-.13,2.219C27.038,22.192,26.781,21.152,27.083,20.672Z" transform="translate(-2.787 -3.069)" fill="#adc0d1"/>
      <path id="Path_2209" data-name="Path 2209" d="M46.23,30.682v2.087A3.43,3.43,0,0,1,46.23,30.682Z" transform="translate(-4.707 -4.073)" fill="#ffce92"/>
      <path id="Path_2210" data-name="Path 2210" d="M.116,41.271c.082-.4-.167-1.125.13-1.305C.164,40.362.413,41.09.116,41.271Z" transform="translate(-0.095 -5.004)" fill="#adc0d1"/>
      <path id="Path_2211" data-name="Path 2211" d="M84.4,39.965c.3.181.049.909.13,1.305C84.232,41.09,84.482,40.362,84.4,39.965Z" transform="translate(-8.551 -5.004)" fill="#adc0d1"/>
      <path id="Path_2212" data-name="Path 2212" d="M1.406,40.546v1.305H1.275C1.358,41.454,1.109,40.727,1.406,40.546Z" transform="translate(-0.211 -5.062)" fill="#adc0d1"/>
      <path id="Path_2213" data-name="Path 2213" d="M83.242,40.546c.3.181.049.909.13,1.305h-.13Z" transform="translate(-8.437 -5.062)" fill="#adc0d1"/>
      <path id="Path_2214" data-name="Path 2214" d="M2.436,42.43c.082-.4-.167-1.124.13-1.305C2.485,41.523,2.734,42.25,2.436,42.43Z" transform="translate(-0.328 -5.12)" fill="#adc0d1"/>
      <path id="Path_2215" data-name="Path 2215" d="M1.278,42h.131v1.957H1.278Z" transform="translate(-0.214 -5.208)" fill="#fefefe"/>
      <path id="Path_2216" data-name="Path 2216" d="M83.242,42h.13v1.957h-.13Z" transform="translate(-8.437 -5.208)" fill="#fefefe"/>
      <path id="Path_2217" data-name="Path 2217" d="M2.436,43.593c.3.181.049.908.13,1.3C2.269,44.717,2.519,43.989,2.436,43.593Z" transform="translate(-0.328 -5.368)" fill="#adc0d1"/>
      <path id="Path_2218" data-name="Path 2218" d="M1.276,44.172h.131v1.305C1.109,45.3,1.358,44.569,1.276,44.172Z" transform="translate(-0.211 -5.426)" fill="#adc0d1"/>
      <path id="Path_2219" data-name="Path 2219" d="M83.242,44.172h.13c-.081.4.168,1.125-.13,1.305Z" transform="translate(-8.437 -5.426)" fill="#adc0d1"/>
      <path id="Path_2220" data-name="Path 2220" d="M.116,44.753c.3.182.049.909.13,1.3C-.052,45.877.2,45.148.116,44.753Z" transform="translate(-0.095 -5.484)" fill="#adc0d1"/>
      <path id="Path_2221" data-name="Path 2221" d="M84.53,44.753c-.082.395.167,1.124-.13,1.3C84.482,45.662,84.232,44.935,84.53,44.753Z" transform="translate(-8.551 -5.484)" fill="#adc0d1"/>
      <path id="Path_2222" data-name="Path 2222" d="M39,52.731a3.865,3.865,0,0,1,0,2.219Z" transform="translate(-3.998 -6.285)" fill="#adc0d1"/>
      <path id="Path_2223" data-name="Path 2223" d="M57.707,64.887c.084-.482-.169-1.3.13-1.565C57.754,63.8,58.006,64.622,57.707,64.887Z" transform="translate(-5.873 -7.347)" fill="#ffce92"/>
      <path id="Path_2224" data-name="Path 2224" d="M22.6,5.788A3.087,3.087,0,0,1,24.039,5,9,9,0,0,1,22.6,5.788Z" transform="translate(-2.353 -1.497)" fill="#adc0d1"/>
      <path id="Path_2225" data-name="Path 2225" d="M18.1,8.515A4.432,4.432,0,0,1,19.541,7.47,8.482,8.482,0,0,1,18.1,8.515Z" transform="translate(-1.902 -1.744)" fill="#adc0d1"/>
      <path id="Path_2226" data-name="Path 2226" d="M10.272,15.274a26.091,26.091,0,0,1,2.74-2.872C12.081,13.342,11.287,14.417,10.272,15.274Z" transform="translate(-1.116 -2.239)" fill="#adc0d1"/>
      <path id="Path_2227" data-name="Path 2227" d="M6.355,20.714A10.225,10.225,0,0,1,7.921,18.5,19.912,19.912,0,0,1,6.355,20.714Z" transform="translate(-0.723 -2.85)" fill="#adc0d1"/>
      <path id="Path_2228" data-name="Path 2228" d="M4.034,25.095a5.644,5.644,0,0,1,1.045-1.958A16.39,16.39,0,0,1,4.034,25.095Z" transform="translate(-0.49 -3.316)" fill="#adc0d1"/>
      <path id="Path_2229" data-name="Path 2229" d="M4.034,60.854a16.613,16.613,0,0,1,1.045,1.959A5.633,5.633,0,0,1,4.034,60.854Z" transform="translate(-0.49 -7.1)" fill="#adc0d1"/>
      <path id="Path_2230" data-name="Path 2230" d="M7.921,67.426a10.212,10.212,0,0,1-1.566-2.219A20.081,20.081,0,0,1,7.921,67.426Z" transform="translate(-0.723 -7.537)" fill="#adc0d1"/>
      <path id="Path_2231" data-name="Path 2231" d="M13.013,73.446a25.99,25.99,0,0,1-2.74-2.87C11.287,71.432,12.081,72.508,13.013,73.446Z" transform="translate(-1.116 -8.075)" fill="#adc0d1"/>
      <path id="Path_2232" data-name="Path 2232" d="M19.542,78.583a4.445,4.445,0,0,1-1.436-1.045A8.408,8.408,0,0,1,19.542,78.583Z" transform="translate(-1.902 -8.774)" fill="#adc0d1"/>
      <path id="Path_2233" data-name="Path 2233" d="M24.039,81.078a3.094,3.094,0,0,1-1.436-.783A8.855,8.855,0,0,1,24.039,81.078Z" transform="translate(-2.353 -9.05)" fill="#adc0d1"/>
      <path id="Path_2234" data-name="Path 2234" d="M60.466,81.078a8.786,8.786,0,0,1,1.436-.783A3.1,3.1,0,0,1,60.466,81.078Z" transform="translate(-6.152 -9.05)" fill="#adc0d1"/>
      <path id="Path_2235" data-name="Path 2235" d="M64.963,78.583A8.372,8.372,0,0,1,66.4,77.538,4.435,4.435,0,0,1,64.963,78.583Z" transform="translate(-6.603 -8.774)" fill="#adc0d1"/>
      <path id="Path_2236" data-name="Path 2236" d="M71.346,73.446c.932-.938,1.726-2.013,2.741-2.87A26.247,26.247,0,0,1,71.346,73.446Z" transform="translate(-7.243 -8.075)" fill="#adc0d1"/>
      <path id="Path_2237" data-name="Path 2237" d="M78.134,65.207a10.21,10.21,0,0,1-1.565,2.219A20.072,20.072,0,0,1,78.134,65.207Z" transform="translate(-7.767 -7.537)" fill="#adc0d1"/>
      <path id="Path_2238" data-name="Path 2238" d="M80.514,60.854a5.654,5.654,0,0,1-1.044,1.959A16.743,16.743,0,0,1,80.514,60.854Z" transform="translate(-8.058 -7.1)" fill="#adc0d1"/>
      <path id="Path_2239" data-name="Path 2239" d="M79.47,23.138A5.643,5.643,0,0,1,80.514,25.1,16.656,16.656,0,0,1,79.47,23.138Z" transform="translate(-8.058 -3.316)" fill="#adc0d1"/>
      <path id="Path_2240" data-name="Path 2240" d="M76.568,18.5a10.275,10.275,0,0,1,1.565,2.219A20.143,20.143,0,0,1,76.568,18.5Z" transform="translate(-7.767 -2.85)" fill="#adc0d1"/>
      <path id="Path_2241" data-name="Path 2241" d="M71.346,12.4a26.183,26.183,0,0,1,2.741,2.872C73.072,14.417,72.278,13.342,71.346,12.4Z" transform="translate(-7.243 -2.239)" fill="#adc0d1"/>
      <path id="Path_2242" data-name="Path 2242" d="M64.963,7.47A4.435,4.435,0,0,1,66.4,8.515,8.518,8.518,0,0,1,64.963,7.47Z" transform="translate(-6.603 -1.744)" fill="#adc0d1"/>
      <path id="Path_2243" data-name="Path 2243" d="M60.466,5a3.075,3.075,0,0,1,1.436.784A8.96,8.96,0,0,1,60.466,5Z" transform="translate(-6.152 -1.497)" fill="#adc0d1"/>
      <path id="Path_2244" data-name="Path 2244" d="M18.687,9.676a4.422,4.422,0,0,1,1.436-1.045A8.555,8.555,0,0,1,18.687,9.676Z" transform="translate(-1.96 -1.86)" fill="#adc0d1"/>
      <path id="Path_2245" data-name="Path 2245" d="M14.044,13.359A11.466,11.466,0,0,1,16,11.532,20.8,20.8,0,0,1,14.044,13.359Z" transform="translate(-1.494 -2.152)" fill="#adc0d1"/>
      <path id="Path_2246" data-name="Path 2246" d="M7.516,21.295a10.234,10.234,0,0,1,1.566-2.219A20.236,20.236,0,0,1,7.516,21.295Z" transform="translate(-0.839 -2.908)" fill="#adc0d1"/>
      <path id="Path_2247" data-name="Path 2247" d="M5.2,25.676A5.622,5.622,0,0,1,6.24,23.718,16.8,16.8,0,0,1,5.2,25.676Z" transform="translate(-0.607 -3.374)" fill="#adc0d1"/>
      <path id="Path_2248" data-name="Path 2248" d="M5.2,60.274A16.943,16.943,0,0,1,6.24,62.232,5.614,5.614,0,0,1,5.2,60.274Z" transform="translate(-0.607 -7.042)" fill="#adc0d1"/>
      <path id="Path_2249" data-name="Path 2249" d="M7.516,64.626a20.173,20.173,0,0,1,1.566,2.22A10.246,10.246,0,0,1,7.516,64.626Z" transform="translate(-0.839 -7.478)" fill="#adc0d1"/>
      <path id="Path_2250" data-name="Path 2250" d="M14.044,72.605A20.681,20.681,0,0,1,16,74.432,11.466,11.466,0,0,1,14.044,72.605Z" transform="translate(-1.494 -8.279)" fill="#adc0d1"/>
      <path id="Path_2251" data-name="Path 2251" d="M18.687,76.377a8.555,8.555,0,0,1,1.436,1.045A4.39,4.39,0,0,1,18.687,76.377Z" transform="translate(-1.96 -8.657)" fill="#adc0d1"/>
      <path id="Path_2252" data-name="Path 2252" d="M64.383,77.422a8.483,8.483,0,0,1,1.436-1.045A4.419,4.419,0,0,1,64.383,77.422Z" transform="translate(-6.545 -8.657)" fill="#adc0d1"/>
      <path id="Path_2253" data-name="Path 2253" d="M68.445,74.433A20.679,20.679,0,0,1,70.4,72.606,11.607,11.607,0,0,1,68.445,74.433Z" transform="translate(-6.952 -8.279)" fill="#adc0d1"/>
      <path id="Path_2254" data-name="Path 2254" d="M75.408,66.846a20.046,20.046,0,0,1,1.565-2.22A10.212,10.212,0,0,1,75.408,66.846Z" transform="translate(-7.651 -7.478)" fill="#adc0d1"/>
      <path id="Path_2255" data-name="Path 2255" d="M78.309,62.232a16.8,16.8,0,0,1,1.045-1.958A5.628,5.628,0,0,1,78.309,62.232Z" transform="translate(-7.942 -7.042)" fill="#adc0d1"/>
      <path id="Path_2256" data-name="Path 2256" d="M79.354,25.676a16.661,16.661,0,0,1-1.045-1.958A5.644,5.644,0,0,1,79.354,25.676Z" transform="translate(-7.942 -3.374)" fill="#adc0d1"/>
      <path id="Path_2257" data-name="Path 2257" d="M76.973,21.295a19.989,19.989,0,0,1-1.565-2.219A10.2,10.2,0,0,1,76.973,21.295Z" transform="translate(-7.651 -2.908)" fill="#adc0d1"/>
      <path id="Path_2258" data-name="Path 2258" d="M68.445,11.532A11.534,11.534,0,0,1,70.4,13.359,20.908,20.908,0,0,1,68.445,11.532Z" transform="translate(-6.952 -2.152)" fill="#adc0d1"/>
      <path id="Path_2259" data-name="Path 2259" d="M65.819,9.676a8.433,8.433,0,0,1-1.436-1.045A4.405,4.405,0,0,1,65.819,9.676Z" transform="translate(-6.545 -1.86)" fill="#adc0d1"/>
      <path id="Path_2260" data-name="Path 2260" d="M33.193,34.743a10.6,10.6,0,0,1,1.565,1.566A10.691,10.691,0,0,1,33.193,34.743Z" transform="translate(-3.415 -4.48)" fill="#ffce92"/>
      <path id="Path_2261" data-name="Path 2261" d="M51.617,47.22a12.542,12.542,0,0,1,1.7,1.7A12.49,12.49,0,0,1,51.617,47.22Z" transform="translate(-5.264 -5.732)" fill="#ffce92"/>
      <path id="Path_2262" data-name="Path 2262" d="M63.8,76.261a8.573,8.573,0,0,1,1.437-1.044A4.446,4.446,0,0,1,63.8,76.261Z" transform="translate(-6.486 -8.541)" fill="#ffce92"/>
      <path id="Path_2263" data-name="Path 2263" d="M66.559,73.982c1.7-1.48,3.4-2.955,4.959-4.568A29.381,29.381,0,0,1,66.559,73.982Z" transform="translate(-6.763 -7.959)" fill="#ffce92"/>
      <path id="Path_2264" data-name="Path 2264" d="M75.813,64.047a10.288,10.288,0,0,1-1.566,2.219A20.272,20.272,0,0,1,75.813,64.047Z" transform="translate(-7.534 -7.42)" fill="#ffce92"/>
      <path id="Path_2265" data-name="Path 2265" d="M78.193,59.694a5.6,5.6,0,0,1-1.044,1.958A16.6,16.6,0,0,1,78.193,59.694Z" transform="translate(-7.825 -6.983)" fill="#ffce92"/>
      <path id="Path_2266" data-name="Path 2266" d="M77.148,24.3a5.6,5.6,0,0,1,1.044,1.959A16.878,16.878,0,0,1,77.148,24.3Z" transform="translate(-7.825 -3.432)" fill="#ffce92"/>
      <path id="Path_2267" data-name="Path 2267" d="M74.247,19.656a10.271,10.271,0,0,1,1.566,2.219A20.371,20.371,0,0,1,74.247,19.656Z" transform="translate(-7.534 -2.967)" fill="#ffce92"/>
      <path id="Path_2268" data-name="Path 2268" d="M66.559,11.677a29.347,29.347,0,0,1,4.959,4.568C69.955,14.632,68.254,13.158,66.559,11.677Z" transform="translate(-6.763 -2.166)" fill="#ffce92"/>
      <path id="Path_2269" data-name="Path 2269" d="M63.8,9.792a4.423,4.423,0,0,1,1.437,1.044A8.572,8.572,0,0,1,63.8,9.792Z" transform="translate(-6.486 -1.977)" fill="#ffce92"/>
      <path id="Path_2270" data-name="Path 2270" d="M23.763,8.109A3.087,3.087,0,0,1,25.2,7.325,9,9,0,0,1,23.763,8.109Z" transform="translate(-2.469 -1.729)" fill="#adc0d1"/>
      <path id="Path_2271" data-name="Path 2271" d="M19.267,10.836A4.42,4.42,0,0,1,20.7,9.792,8.638,8.638,0,0,1,19.267,10.836Z" transform="translate(-2.018 -1.977)" fill="#adc0d1"/>
      <path id="Path_2272" data-name="Path 2272" d="M12.594,16.55a21.753,21.753,0,0,1,1.7-1.827A9.151,9.151,0,0,1,12.594,16.55Z" transform="translate(-1.349 -2.472)" fill="#adc0d1"/>
      <path id="Path_2273" data-name="Path 2273" d="M8.677,21.875a10.234,10.234,0,0,1,1.566-2.219A20.272,20.272,0,0,1,8.677,21.875Z" transform="translate(-0.956 -2.967)" fill="#adc0d1"/>
      <path id="Path_2274" data-name="Path 2274" d="M6.355,26.257A5.641,5.641,0,0,1,7.4,24.3,16.612,16.612,0,0,1,6.355,26.257Z" transform="translate(-0.723 -3.432)" fill="#adc0d1"/>
      <path id="Path_2275" data-name="Path 2275" d="M6.355,59.694A16.87,16.87,0,0,1,7.4,61.652,5.643,5.643,0,0,1,6.355,59.694Z" transform="translate(-0.723 -6.983)" fill="#adc0d1"/>
      <path id="Path_2276" data-name="Path 2276" d="M10.242,66.266a10.256,10.256,0,0,1-1.566-2.219A20.03,20.03,0,0,1,10.242,66.266Z" transform="translate(-0.956 -7.42)" fill="#adc0d1"/>
      <path id="Path_2277" data-name="Path 2277" d="M14.29,71.241a21.754,21.754,0,0,1-1.7-1.827A9.123,9.123,0,0,1,14.29,71.241Z" transform="translate(-1.349 -7.959)" fill="#adc0d1"/>
      <path id="Path_2278" data-name="Path 2278" d="M20.7,76.261a4.433,4.433,0,0,1-1.436-1.044A8.565,8.565,0,0,1,20.7,76.261Z" transform="translate(-2.018 -8.541)" fill="#adc0d1"/>
      <path id="Path_2279" data-name="Path 2279" d="M25.2,78.757a3.094,3.094,0,0,1-1.436-.783A8.925,8.925,0,0,1,25.2,78.757Z" transform="translate(-2.469 -8.817)" fill="#adc0d1"/>
      <path id="Path_2280" data-name="Path 2280" d="M49.73,77.683a7.359,7.359,0,0,1,1.306-1.306A7.48,7.48,0,0,1,49.73,77.683Z" transform="translate(-5.075 -8.657)" fill="#adc0d1"/>
      <path id="Path_2281" data-name="Path 2281" d="M49.44,47.8a10.7,10.7,0,0,1,1.567,1.566A10.659,10.659,0,0,1,49.44,47.8Z" transform="translate(-5.045 -5.79)" fill="#adc0d1"/>
      <path id="Path_2282" data-name="Path 2282" d="M54.909,40.241c.557.356.879.947,1.436,1.305-.609.04-1.368-.894-1.826-1.436C54.707,40.04,54.837,40.619,54.909,40.241Z" transform="translate(-5.555 -5.018)" fill="#ffce92"/>
      <path id="Path_2283" data-name="Path 2283" d="M57.209,20.084c3.287,3.151,4.5,8.374,6.917,12.4,3.376,1.279,6.379,2.931,8.092,5.873-1.574.34-3.2.623-4.829.913,1.765,2.15,4.724,3.107,6,5.742-1.251-.831-2.852-1.753-4.438-2.61S65.86,40.512,65.3,38.748a9.413,9.413,0,0,1,5.35-1.045,11.491,11.491,0,0,0-3.393-2.48c-1.251-.751-2.828-.838-4.046-1.7-1.268-.894-2.1-3.7-2.872-5.352-1.9-4.082-3.308-6.9-6.656-9.527-1.969-1.545-4.075-3.071-7.831-3-1.215-.963-3.024-2.569-4.959-1.958.024,1.742,1.625,2.847,2.479,4.569.824,1.659,1.1,3.573,1.958,4.96.272.436,1.065,1.036,1.176,1.566.309,1.483-1.093,2.563-.915,4.046a3.433,3.433,0,0,0,0,2.088c.22,1.652.563,3.179,1.7,3.915.393-1.914.624-3.987,1.827-5.09a42.661,42.661,0,0,0,4.307,7.7c-.072.378-.2-.2-.391-.13a9.431,9.431,0,0,1-3.655-4.7c-.667,1.287-.132,3.369-1.7,3.524-3.353.333-3.944-8.368-2.219-10.963-1.569-1.164-1.789-3.959-3-6.525-.711-1.5-2.884-2.753-2.74-4.7.239-3.26,5.488-1.192,6.786.392,4.531.081,6.842,2.381,9.4,4.437A7.444,7.444,0,0,0,57.209,20.084Z" transform="translate(-4.07 -2.221)" fill="#fefefe"/>
      <path id="Path_2284" data-name="Path 2284" d="M57.709,19.511a7.378,7.378,0,0,1,1.305,1.305A7.408,7.408,0,0,1,57.709,19.511Z" transform="translate(-5.875 -2.952)" fill="#ffce92"/>
      <path id="Path_2285" data-name="Path 2285" d="M48.439,20.575c-.173-.915-.893-1.282-1.175-2.088C48.852,18,49.747,20.123,48.439,20.575Z" transform="translate(-4.827 -2.842)" fill="#fefefe"/>
      <path id="Path_2286" data-name="Path 2286" d="M26.085,64.917a7.373,7.373,0,0,1,1.3,1.305A7.373,7.373,0,0,1,26.085,64.917Z" transform="translate(-2.702 -7.507)" fill="#adc0d1"/>
      <path id="Path_2287" data-name="Path 2287" d="M30.262,45.608c-.6-.4-.966-1.034-1.566-1.436.669-.014,1.445.991,1.958,1.566C30.466,45.808,30.335,45.231,30.262,45.608Z" transform="translate(-2.964 -5.426)" fill="#adc0d1"/>
      <path id="Path_2288" data-name="Path 2288" d="M24.28,62.137c-3.29-3.15-4.5-8.379-6.917-12.4C14,48.45,10.993,46.8,9.271,43.866c1.559-.355,3.229-.6,4.829-.913-1.762-2.155-4.708-3.124-6-5.744.881.157,1.368,1.047,2.219,1.566,2.15,1.311,5.149,1.955,5.873,4.7a9.615,9.615,0,0,1-5.351,1.045,17.08,17.08,0,0,0,3.263,2.61c1.232.759,2.924.684,4.176,1.566s2.116,3.69,2.872,5.35c1.85,4.063,3.314,6.906,6.656,9.528,1.952,1.53,4.076,3.08,7.831,3,1.215.962,3.025,2.569,4.961,1.958-.011-1.748-1.625-2.846-2.48-4.568-.824-1.659-1.1-3.574-1.958-4.959-.274-.44-1.063-1.031-1.175-1.567-.309-1.482,1.092-2.563.914-4.046a3.865,3.865,0,0,0,0-2.219c-.278-1.55-.549-3.106-1.7-3.785-.527,1.822-.406,4.292-2.088,4.96-.858-2.927-2.447-5.122-3.915-7.44.073-.377.2.2.391.131a9.019,9.019,0,0,1,3.524,4.568c.682-1.278.139-3.355,1.7-3.523,3.342-.361,3.937,8.394,2.219,10.963,1.559,1.166,1.79,3.96,3,6.525.7,1.491,2.889,2.774,2.741,4.7-.248,3.25-5.475,1.19-6.787-.392-4.531-.081-6.842-2.381-9.4-4.437A7.48,7.48,0,0,0,24.28,62.137Z" transform="translate(-0.898 -4.728)" fill="#fefefe"/>
      <path id="Path_2289" data-name="Path 2289" d="M36.6,65.062c.147.943.912,1.263,1.175,2.089C36.175,67.617,35.327,65.547,36.6,65.062Z" transform="translate(-3.696 -7.522)" fill="#fefefe"/>
      <path id="Path_2290" data-name="Path 2290" d="M39.866,2.23a15.16,15.16,0,0,1,4.438,0Z" transform="translate(-4.085 -1.202)" fill="#adc0d1"/>
      <path id="Path_2291" data-name="Path 2291" d="M39.866,83.921H44.3A15.16,15.16,0,0,1,39.866,83.921Z" transform="translate(-4.085 -9.414)" fill="#adc0d1"/>
    </g>
  </g>
</svg>
