<svg xmlns="http://www.w3.org/2000/svg" width="74.415" height="74.426" viewBox="0 0 74.415 74.426">
  <g id="Group_11932" data-name="Group 11932" transform="translate(-1507 -4591)">
    <path id="Path_19008" data-name="Path 19008" d="M35.271.345c-.16.015-.669.065-1.127.1A37.3,37.3,0,0,0,7.4,15.868,36.835,36.835,0,0,0,.835,32.126,28.482,28.482,0,0,0,.5,37.545a28.482,28.482,0,0,0,.335,5.419A37.362,37.362,0,0,0,26.287,73.028a39.338,39.338,0,0,0,7.856,1.629,68.536,68.536,0,0,0,7.129,0,37.567,37.567,0,0,0,13.406-3.921c.64-.327.764-.415.676-.487-.058-.044-2.786-3.7-6.059-8.125l-5.95-8.038L35.889,43.051c-4.1-6.067-7.478-11.028-7.507-11.028s-.058,4.9-.073,10.882c-.022,10.482-.029,10.9-.16,11.151a1.322,1.322,0,0,1-.64.662c-.233.116-.436.138-1.535.138H24.716l-.335-.211a1.36,1.36,0,0,1-.487-.531l-.153-.327L23.756,39.2l.022-14.592L24,24.328a2,2,0,0,1,.538-.444c.3-.145.415-.16,1.673-.16,1.484,0,1.731.058,2.117.48.109.116,4.146,6.2,8.976,13.523S48.742,55.054,51.987,59.964l5.892,8.925.3-.2a38.2,38.2,0,0,0,7.645-6.707A37.043,37.043,0,0,0,74.58,42.964a28.483,28.483,0,0,0,.335-5.419,28.483,28.483,0,0,0-.335-5.419A37.362,37.362,0,0,0,49.128,2.061,39.064,39.064,0,0,0,41.381.439c-.7-.073-5.507-.153-6.11-.095ZM50.5,22.851a1.468,1.468,0,0,1,.735.858c.058.189.073,4.234.058,13.348l-.022,13.079L48.968,46.6l-2.313-3.535V33.559c0-6.147.029-9.6.073-9.769a1.484,1.484,0,0,1,.72-.917c.3-.153.407-.167,1.549-.167,1.077,0,1.266.015,1.506.145Z" transform="translate(1506.5 4590.675)"/>
    <path id="Path_19009" data-name="Path 19009" d="M759.03,943.153c-.255.16-.335.269-.109.145.16-.094.422-.291.378-.3A1.5,1.5,0,0,0,759.03,943.153Zm-.5.327c-.131.1-.131.109.029.029a.446.446,0,0,0,.16-.109c0-.058-.036-.044-.189.08Zm-.364.218c-.131.1-.131.109.029.029a.445.445,0,0,0,.16-.109C758.354,943.56,758.318,943.575,758.165,943.7Zm-.364.218c-.131.1-.131.109.029.029a.445.445,0,0,0,.16-.109C757.99,943.778,757.954,943.793,757.8,943.917Zm-.553.291c-.276.146-.262.2.014.065a.758.758,0,0,0,.218-.146C757.481,944.077,757.474,944.084,757.248,944.208Z" transform="translate(804.984 3716.572)"/>
  </g>
</svg>
