<svg xmlns="http://www.w3.org/2000/svg" width="69.816" height="68.071" viewBox="0 0 69.816 68.071">
  <g id="Group_11984" data-name="Group 11984" transform="translate(-449.371 -4328)">
    <path id="Path_18938" data-name="Path 18938" d="M12.363,0h45.09A12.353,12.353,0,0,1,69.816,12.363V55.708A12.353,12.353,0,0,1,57.453,68.071H12.363A12.353,12.353,0,0,1,0,55.708V12.363A12.353,12.353,0,0,1,12.363,0Z" transform="translate(449.371 4328)" fill="#001e36"/>
    <g id="Group_10104" data-name="Group 10104" transform="translate(465.079 4345.309)">
      <path id="Path_18939" data-name="Path 18939" d="M54,89.928V59.995c0-.2.087-.32.291-.32.495,0,.96,0,1.629-.029.7-.029,1.425-.029,2.211-.058s1.629-.029,2.531-.058,1.774-.029,2.647-.029a17.1,17.1,0,0,1,5.993.9,10.388,10.388,0,0,1,3.9,2.385A9.263,9.263,0,0,1,75.323,66.1a11.134,11.134,0,0,1,.669,3.782,10.4,10.4,0,0,1-1.745,6.2,9.966,9.966,0,0,1-4.684,3.549,18.853,18.853,0,0,1-6.545.989c-.7,0-1.164,0-1.454-.029s-.7-.029-1.251-.029V89.9a.362.362,0,0,1-.32.407H54.349c-.233,0-.349-.116-.349-.378Zm6.342-24.639v9.774c.407.029.785.058,1.135.058h1.542a10.866,10.866,0,0,0,3.345-.524,5,5,0,0,0,2.385-1.542,4.5,4.5,0,0,0,.9-3,4.788,4.788,0,0,0-.669-2.589,4.218,4.218,0,0,0-2.036-1.658,8.536,8.536,0,0,0-3.433-.582c-.756,0-1.425,0-1.978.029A6.66,6.66,0,0,0,60.342,65.289Zm33.8,8a10.3,10.3,0,0,0-2.793-.989,15.335,15.335,0,0,0-3.258-.378,5.857,5.857,0,0,0-1.745.2,1.494,1.494,0,0,0-.9.582,1.542,1.542,0,0,0-.233.785,1.294,1.294,0,0,0,.291.756,3.283,3.283,0,0,0,.989.785c.669.349,1.367.669,2.065.96a21.07,21.07,0,0,1,4.48,2.124,6.769,6.769,0,0,1,2.3,2.414,6.28,6.28,0,0,1,.669,3A6.768,6.768,0,0,1,94.872,87.4a7.29,7.29,0,0,1-3.258,2.589,13.329,13.329,0,0,1-5.265.931,20.039,20.039,0,0,1-3.956-.378,11.735,11.735,0,0,1-2.967-.931.572.572,0,0,1-.32-.553V83.994a.316.316,0,0,1,.116-.262.221.221,0,0,1,.262.029,12.452,12.452,0,0,0,3.607,1.425,13.543,13.543,0,0,0,3.433.436,5.552,5.552,0,0,0,2.414-.407,1.351,1.351,0,0,0,.785-1.222,1.541,1.541,0,0,0-.7-1.164,12.336,12.336,0,0,0-2.851-1.367,17.8,17.8,0,0,1-4.131-2.094A7.532,7.532,0,0,1,79.832,76.9a6.242,6.242,0,0,1-.669-2.967,6.842,6.842,0,0,1,.989-3.52,7.171,7.171,0,0,1,3.054-2.676,11.28,11.28,0,0,1,5.149-1.018,25.078,25.078,0,0,1,3.607.262,10.236,10.236,0,0,1,2.5.669.511.511,0,0,1,.291.262,1.46,1.46,0,0,1,.058.349V73a.358.358,0,0,1-.145.291.775.775,0,0,1-.524,0Z" transform="translate(-54 -59.5)" fill="#31a8ff"/>
    </g>
  </g>
</svg>
