<svg xmlns="http://www.w3.org/2000/svg" width="88.2" height="45.912" viewBox="0 0 88.2 45.912">
  <g id="Group_11968" data-name="Group 11968" transform="translate(-255 -4326)">
    <ellipse id="Ellipse_37" data-name="Ellipse 37" cx="44.1" cy="22.956" rx="44.1" ry="22.956" transform="translate(255 4326)" fill="#6181b6"/>
    <path id="Path_2116" data-name="Path 2116" d="M28.693,49.131l4.833-24.467H44.7c4.833.3,7.249,2.719,7.249,6.948,0,7.249-5.739,11.478-10.874,11.176H35.641l-1.208,6.343h-5.74Z" transform="translate(238.691 4313.418)" fill="#fff"/>
    <path id="Path_2117" data-name="Path 2117" d="M44.457,42.483l1.511-9.062h3.927c2.114,0,3.624.906,3.624,2.719-.3,5.135-2.718,6.042-5.437,6.343Z" transform="translate(231.083 4309.191)" fill="#6181b6"/>
    <path id="Path_2118" data-name="Path 2118" d="M71.48,36.869,76.313,12.4h5.739l-1.208,6.342h5.437c4.833.3,6.645,2.719,6.041,5.739L90.208,36.868H84.167l2.114-11.176c.3-1.51.3-2.416-1.813-2.416H79.938L77.22,36.868H71.48Z" transform="translate(218.039 4319.336)" fill="#fff"/>
    <path id="Path_2119" data-name="Path 2119" d="M106.933,49.131l4.833-24.467h11.176c4.833.3,7.25,2.719,7.25,6.948,0,7.249-5.739,11.478-10.874,11.176H113.88l-1.208,6.343h-5.739Z" transform="translate(200.927 4313.418)" fill="#fff"/>
    <path id="Path_2120" data-name="Path 2120" d="M122.7,42.483l1.51-9.062h3.927c2.115,0,3.625.906,3.625,2.719-.3,5.135-2.718,6.042-5.437,6.343Z" transform="translate(193.319 4309.191)" fill="#6181b6"/>
  </g>
</svg>
