<svg xmlns="http://www.w3.org/2000/svg" width="76" height="78.354" viewBox="0 0 76 78.354">
  <g id="Group_11975" data-name="Group 11975" transform="translate(-737.914 -4236.627)">
    <path id="Path_18983" data-name="Path 18983" d="M76.1,47.3a3.855,3.855,0,0,0-3.2-2.578,7.329,7.329,0,0,0-2.554.141,22.957,22.957,0,0,1-3.936.517,75.906,75.906,0,0,0,8.036-19.113c2.666-10.323,1.242-15.026-.423-17.153C69.611,3.484,63.183.459,55.427.367A32.945,32.945,0,0,0,45.763,1.72,35.982,35.982,0,0,0,40.111,1.2a18.372,18.372,0,0,0-9.844,2.425,44.883,44.883,0,0,0-6.952-1.745C16.518.768,11.039,1.637,7.032,4.468,2.179,7.9-.07,13.851.346,22.169a101.723,101.723,0,0,0,3.935,18.3A63.186,63.186,0,0,0,8.518,51.276c2.091,3.962,4.329,6.3,6.841,7.134a6.724,6.724,0,0,0,6.656-1.443,5.821,5.821,0,0,0,1.4,1.2,9.313,9.313,0,0,0,2.641,1.113,14.184,14.184,0,0,0,9.233-.55c.017.48.029.938.04,1.334.018.642.036,1.271.059,1.86.16,3.98.431,7.075,1.233,9.24.044.119.1.3.166.493a11.124,11.124,0,0,0,2.772,4.884,8.27,8.27,0,0,0,5.849,2.175,13.145,13.145,0,0,0,2.734-.3c2.922-.626,6.241-1.58,8.642-5,2.27-3.232,3.373-8.1,3.573-15.769.026-.217.05-.424.073-.621l.048-.405.535.047.138.009A21.161,21.161,0,0,0,70,55.142c1.766-.82,7.426-3.808,6.093-7.842" transform="translate(737.617 4236.263)"/>
    <path id="Path_18984" data-name="Path 18984" d="M78.77,55.85c-8.85,1.826-9.459-1.171-9.459-1.171,9.344-13.866,13.251-31.466,9.88-35.773-9.2-11.75-25.116-6.193-25.382-6.049l-.085.015a31.564,31.564,0,0,0-5.9-.615,14.584,14.584,0,0,0-9.347,2.8s-28.4-11.7-27.078,14.714c.281,5.619,8.054,42.517,17.325,31.372,3.389-4.075,6.663-7.521,6.663-7.521A8.594,8.594,0,0,0,41,55.053l.159-.135a6.185,6.185,0,0,0,.063,1.587c-2.388,2.668-1.686,3.137-6.461,4.12-4.831,1-1.993,2.768-.14,3.232,2.246.562,7.444,1.357,10.955-3.559l-.14.561c.936.75,1.593,4.875,1.483,8.616s-.184,6.308.554,8.314,1.472,6.519,7.749,5.174c5.244-1.124,7.962-4.036,8.341-8.895.268-3.454.875-2.943.914-6.031l.487-1.462c.562-4.682.089-6.193,3.32-5.49l.786.069a17.9,17.9,0,0,0,7.317-1.232c3.934-1.825,6.267-4.874,2.388-4.073h0" transform="translate(729.854 4228.498)" fill="#336791"/>
    <path id="Path_18985" data-name="Path 18985" d="M102.937,80.127a2.746,2.746,0,0,0-1.885.268.692.692,0,0,0-.286.46,1.344,1.344,0,0,0,.326.88,2.465,2.465,0,0,0,1.565.976,1.782,1.782,0,0,0,.251.017,2.029,2.029,0,0,0,1.921-1.307c.1-.7-.912-1.159-1.891-1.295m26.421.022c-.076-.545-1.046-.7-1.966-.572s-1.81.543-1.736,1.089a1.866,1.866,0,0,0,1.734,1.15,1.659,1.659,0,0,0,.232-.016,2.236,2.236,0,0,0,1.262-.69,1.39,1.39,0,0,0,.473-.96" transform="translate(667.052 4180.653)" fill="#fff"/>
    <path id="Path_18986" data-name="Path 18986" d="M78.978,52.8c-.337-1.02-1.424-1.349-3.228-.976-5.358,1.106-7.277.34-7.907-.124a73.673,73.673,0,0,0,9.439-21.17,40.223,40.223,0,0,0,1.4-9.1c.044-2.816-.436-4.885-1.425-6.15-3.988-5.1-9.842-7.83-16.927-7.9a29,29,0,0,0-9.785,1.542A24.394,24.394,0,0,0,45.038,8.2a15.907,15.907,0,0,0-9.435,2.6,42.118,42.118,0,0,0-7.667-2.011c-6.211-1-11.147-.242-14.669,2.253-4.2,2.978-6.143,8.3-5.767,15.82a99.311,99.311,0,0,0,3.843,17.765c2.994,9.81,6.249,15.363,9.674,16.505a4.333,4.333,0,0,0,1.373.227c1.249,0,2.781-.563,4.375-2.479q2.916-3.5,6.029-6.823A9.715,9.715,0,0,0,37.13,53.23c0,.04.007.079.01.118q-.391.466-.765.945c-1.048,1.331-1.266,1.608-4.64,2.3-.96.2-3.509.723-3.546,2.51-.04,1.952,3.013,2.772,3.361,2.859a14.394,14.394,0,0,0,3.494.453,10.168,10.168,0,0,0,7-2.613c-.059,6.959.232,13.817,1.067,15.906.684,1.711,2.356,5.891,7.637,5.89a12.251,12.251,0,0,0,2.566-.291c5.512-1.181,7.905-3.617,8.831-8.988.5-2.87,1.346-9.724,1.746-13.4A10.8,10.8,0,0,0,67,59.306a18.482,18.482,0,0,0,7.049-1.343c1.991-.925,5.585-3.194,4.933-5.166ZM65.853,27.954a22.3,22.3,0,0,1-.326,3.1,28.622,28.622,0,0,0-.391,3.638,27.589,27.589,0,0,0,.288,4.114c.33,2.744.668,5.568-.642,8.356a10.866,10.866,0,0,1-.58-1.193c-.163-.395-.516-1.028-1.006-1.906-1.9-3.415-6.364-11.412-4.081-14.676.68-.971,2.406-1.97,6.737-1.432ZM60.6,9.567c6.349.14,11.371,2.515,14.926,7.059,2.727,3.485-.276,19.343-8.969,33.023l-.264-.332-.11-.137c2.246-3.71,1.807-7.381,1.416-10.635a25.5,25.5,0,0,1-.274-3.782,26.785,26.785,0,0,1,.367-3.375,21.308,21.308,0,0,0,.343-4.177,1.731,1.731,0,0,0,.036-.589c-.141-1.5-1.855-5.995-5.349-10.061a24.1,24.1,0,0,0-8.5-6.393,28.673,28.673,0,0,1,6.381-.6ZM25.077,57.484c-1.756,2.111-2.968,1.706-3.367,1.574-2.6-.867-5.613-6.358-8.27-15.065a98.411,98.411,0,0,1-3.75-17.235c-.336-6.719,1.293-11.4,4.841-13.918C20.3,8.745,29.8,11.2,33.613,12.439c-.055.054-.112.1-.166.16-6.26,6.322-6.112,17.123-6.1,17.784,0,.255.021.615.05,1.111a44.688,44.688,0,0,1-.227,9.027,11.416,11.416,0,0,0,3.009,9.555q.371.386.779.734c-1.073,1.149-3.4,3.689-5.885,6.674Zm6.689-8.926a9.237,9.237,0,0,1-2.42-7.734,46.719,46.719,0,0,0,.245-9.46c-.016-.265-.03-.5-.038-.68.914-.811,5.152-3.082,8.175-2.389a3.326,3.326,0,0,1,2.569,2.87c1.808,8.363.239,11.849-1.021,14.65-.26.577-.505,1.123-.715,1.687l-.162.436a28.6,28.6,0,0,0-1.031,3.1,7.8,7.8,0,0,1-5.6-2.482Zm.317,11.279a4.849,4.849,0,0,1-1.463-.629,7.146,7.146,0,0,1,1.559-.464c3.969-.817,4.582-1.394,5.921-3.093.307-.39.655-.831,1.136-1.37h0c.717-.8,1.046-.667,1.641-.42A2.321,2.321,0,0,1,42.02,55.33a1.636,1.636,0,0,1-.14,1.375C39.084,60.62,35.009,60.57,32.083,59.837ZM52.854,79.166C48,80.206,46.28,77.729,45.147,74.9c-.731-1.828-1.091-10.073-.836-19.179a1.1,1.1,0,0,0-.047-.348,4.6,4.6,0,0,0-.136-.643,4.445,4.445,0,0,0-2.412-2.893,3.4,3.4,0,0,0-2.22-.269,26.824,26.824,0,0,1,.956-2.861l.163-.439c.184-.495.415-1.008.659-1.55C42.594,43.784,44.4,39.77,42.44,30.7c-.734-3.4-3.187-5.055-6.905-4.67a15.934,15.934,0,0,0-5.285,1.646c-.219.111-.419.218-.606.322.284-3.422,1.356-9.818,5.368-13.865A13.183,13.183,0,0,1,45,10.4,21.175,21.175,0,0,1,61.18,18.128a24.554,24.554,0,0,1,4.427,7.591c-4.093-.416-6.877.392-8.288,2.409-3.07,4.389,1.68,12.907,3.962,17,.419.75.78,1.4.894,1.674a15.2,15.2,0,0,0,2.408,3.882c.215.269.424.53.583.758-1.24.357-3.467,1.183-3.264,5.311-.164,2.071-1.328,11.768-1.919,15.195-.781,4.526-2.446,6.212-7.129,7.217ZM73.121,55.973a15.991,15.991,0,0,1-5.4,1.125c-2.226.1-3.359-.249-3.626-.467-.125-2.572.832-2.841,1.846-3.126.159-.045.315-.088.465-.141a3.783,3.783,0,0,0,.307.225c1.789,1.181,4.98,1.308,9.485.378l.049-.01a12.129,12.129,0,0,1-3.122,2.015Z" transform="translate(732.591 4231.344)" fill="#fff"/>
  </g>
</svg>
