<svg xmlns="http://www.w3.org/2000/svg" width="80.078" height="71.254" viewBox="0 0 80.078 71.254">
  <g id="Group_11919" data-name="Group 11919" transform="translate(-964 -3981)">
    <circle id="Ellipse_36" data-name="Ellipse 36" cx="7.155" cy="7.155" r="7.155" transform="translate(996.898 4009.393)" fill="#00d8ff"/>
    <g id="Group_3201" data-name="Group 3201" transform="translate(964 4000.299)">
      <path id="Path_2061" data-name="Path 2061" d="M40.427,56.573c-10.049,0-18.83-1.183-25.4-3.435a32.263,32.263,0,0,1-10.463-5.6C1.828,45.2.374,42.648.374,40.18c0-4.732,5.188-9.364,13.9-12.386,7.127-2.48,16.42-3.862,26.142-3.862,9.55,0,18.715,1.339,25.8,3.791a32.825,32.825,0,0,1,10.121,5.331c2.693,2.252,4.119,4.718,4.119,7.127,0,4.917-5.8,9.892-15.152,12.985C58.686,55.362,49.849,56.573,40.427,56.573Zm0-29.221c-9.222,0-18.345,1.339-25.016,3.663C7.4,33.809,3.81,37.63,3.81,40.18c0,2.651,3.863,6.828,12.33,9.722,6.214,2.125,14.624,3.25,24.288,3.25,9.065,0,17.518-1.141,23.8-3.236,8.795-2.922,12.814-7.1,12.814-9.736,0-1.354-1.026-2.95-2.894-4.5a29.315,29.315,0,0,0-9.037-4.732C58.373,28.635,49.606,27.353,40.427,27.353Z" transform="translate(-0.374 -23.932)" fill="#00d8ff"/>
    </g>
    <g id="Group_3202" data-name="Group 3202" transform="translate(979.488 3981)">
      <path id="Path_2062" data-name="Path 2062" d="M27.287,71.988a7.509,7.509,0,0,1-3.82-.941c-4.091-2.365-5.516-9.18-3.791-18.23,1.411-7.426,4.861-16.15,9.722-24.574,4.774-8.267,10.5-15.537,16.163-20.454a32.536,32.536,0,0,1,9.678-6.1C58.53.476,61.381.476,63.463,1.674c4.262,2.451,5.673,9.977,3.677,19.613-1.411,6.841-4.775,15.095-9.478,23.262C52.644,53.245,47.227,60.257,42,64.832A32.277,32.277,0,0,1,31.919,71.09,13.915,13.915,0,0,1,27.287,71.988ZM30.865,29.1l1.482.855c-4.6,7.981-8.01,16.548-9.322,23.5-1.582,8.338-.057,13.355,2.138,14.624a4.229,4.229,0,0,0,2.124.485c2.836,0,7.3-1.8,12.458-6.3C44.69,57.947,49.864,51.219,54.7,42.852,59.229,35,62.451,27.1,63.79,20.616c1.866-9.08.257-14.638-2.039-15.963-1.168-.67-3.065-.585-5.345.257A29.125,29.125,0,0,0,47.8,10.383c-5.373,4.676-10.861,11.631-15.451,19.585Z" transform="translate(-18.957 -0.777)" fill="#00d8ff"/>
    </g>
    <g id="Group_3203" data-name="Group 3203" transform="translate(979.505 3981.071)">
      <path id="Path_2063" data-name="Path 2063" d="M59.76,72.045c-3.876,0-8.8-2.338-13.926-6.756C40.1,60.357,34.275,53.016,29.4,44.593h0c-4.789-8.267-8.21-16.863-9.65-24.232A32.7,32.7,0,0,1,19.293,8.93C19.892,5.466,21.3,3,23.4,1.789,27.646-.677,34.873,1.86,42.227,8.4c5.217,4.632,10.69,11.674,15.409,19.827,5.031,8.7,8.41,16.891,9.75,23.7a32.6,32.6,0,0,1,.4,11.859c-.655,3.55-2.137,6.072-4.277,7.312A7.327,7.327,0,0,1,59.76,72.045Zm-27.4-29.164c4.618,7.981,10.348,15.208,15.707,19.812C54.5,68.225,59.6,69.422,61.813,68.139c2.295-1.325,3.976-6.756,2.238-15.537-1.284-6.442-4.518-14.283-9.364-22.65-4.547-7.854-9.778-14.6-14.725-18.986-6.928-6.158-12.544-7.54-14.838-6.214-1.169.67-2.039,2.365-2.451,4.76A29.151,29.151,0,0,0,23.114,19.7c1.369,7,4.647,15.223,9.251,23.177Z" transform="translate(-18.977 -0.862)" fill="#00d8ff"/>
    </g>
  </g>
</svg>
