<svg xmlns="http://www.w3.org/2000/svg" width="76" height="64.893" viewBox="0 0 76 64.893">
  <g id="Group_11976" data-name="Group 11976" transform="translate(-476.838 -4243.498)">
    <path id="Path_18987" data-name="Path 18987" d="M73.022,125.1c-4.056,2.114-25.066,10.753-29.539,13.085s-6.958,2.31-10.492.62S7.1,128.081,3.071,126.156C1.059,125.194,0,124.382,0,123.615v-7.682s29.108-6.337,33.808-8.023,6.329-1.747,10.328-.282,27.911,5.78,31.864,7.227l0,7.573c0,.759-.911,1.592-2.976,2.668" transform="translate(476.839 4168.382)" fill="#912626"/>
    <path id="Path_18988" data-name="Path 18988" d="M73.021,102.9c-4.056,2.113-25.065,10.752-29.538,13.084s-6.958,2.31-10.491.62S7.1,105.881,3.073,103.957s-4.112-3.25-.156-4.8S29.108,88.884,33.808,87.2s6.329-1.747,10.328-.281S69.02,96.694,72.971,98.141s4.1,2.642.049,4.756" transform="translate(476.839 4182.946)" fill="#c6302b"/>
    <path id="Path_18989" data-name="Path 18989" d="M73.022,83.228c-4.056,2.114-25.066,10.753-29.539,13.086s-6.958,2.309-10.492.62S7.1,86.213,3.071,84.288C1.059,83.326,0,82.515,0,81.747V74.065s29.108-6.336,33.808-8.022,6.329-1.747,10.328-.282S72.048,71.538,76,72.986l0,7.574c0,.759-.911,1.592-2.976,2.668" transform="translate(476.839 4197.821)" fill="#912626"/>
    <path id="Path_18990" data-name="Path 18990" d="M73.021,61.029c-4.056,2.114-25.065,10.752-29.538,13.085s-6.958,2.309-10.491.62S7.1,64.012,3.073,62.088s-4.112-3.25-.156-4.8S29.109,47.015,33.808,45.33s6.329-1.747,10.328-.282S69.02,54.825,72.971,56.273s4.1,2.642.049,4.756" transform="translate(476.839 4212.384)" fill="#c6302b"/>
    <path id="Path_18991" data-name="Path 18991" d="M73.022,39.809c-4.056,2.114-25.066,10.753-29.539,13.086s-6.958,2.309-10.492.62S7.1,42.793,3.071,40.869C1.059,39.906,0,39.095,0,38.328V30.645s29.108-6.336,33.808-8.022,6.329-1.747,10.328-.282S72.048,28.119,76,29.567l0,7.574c0,.759-.911,1.592-2.976,2.668" transform="translate(476.839 4228.351)" fill="#912626"/>
    <path id="Path_18992" data-name="Path 18992" d="M73.021,17.609c-4.056,2.114-25.065,10.753-29.538,13.084s-6.958,2.309-10.491.62S7.1,20.592,3.073,18.667s-4.112-3.25-.156-4.8S29.109,3.6,33.808,1.91,40.138.163,44.136,1.628,69.02,11.406,72.972,12.854s4.1,2.641.049,4.755" transform="translate(476.838 4242.914)" fill="#c6302b"/>
    <path id="Path_18993" data-name="Path 18993" d="M77.256,19.6l-6.534.678L69.259,23.8,66.9,19.872l-7.545-.678,5.63-2.03-1.689-3.117,5.271,2.061,4.969-1.627L72.189,17.7l5.067,1.9M68.869,36.677,56.674,31.619l17.474-2.682-5.279,7.74M51.962,21.558c5.158,0,9.34,1.621,9.34,3.62s-4.181,3.62-9.34,3.62-9.34-1.621-9.34-3.62,4.181-3.62,9.34-3.62" transform="translate(446.87 4233.448)" fill="#fff"/>
    <path id="Path_18994" data-name="Path 18994" d="M185.295,36l10.342,4.087L185.3,44.167,185.295,36" transform="translate(346.553 4218.014)" fill="#621b1c"/>
    <path id="Path_18995" data-name="Path 18995" d="M146.755,40.524,158.2,36l.009,8.17-1.122.439-10.329-4.083" transform="translate(373.652 4218.014)" fill="#9a2928"/>
  </g>
</svg>
