<svg xmlns="http://www.w3.org/2000/svg" width="84.735" height="63.539" viewBox="0 0 84.735 63.539">
  <g id="Group_11930" data-name="Group 11930" transform="translate(-972 -4591)">
    <g id="Group_3205" data-name="Group 3205" transform="translate(972 4591)">
      <g id="Group_3204" data-name="Group 3204" transform="translate(0 0)">
        <path id="Path_2064" data-name="Path 2064" d="M74.982,37.59A17.367,17.367,0,0,0,67.3,39.377a16.3,16.3,0,0,1-1.721-3.984,10.655,10.655,0,0,1-.145-3.349,28.211,28.211,0,0,1,1.006-3.6c-.014-.145-.186-.873-1.893-.887s-3.177.331-3.349.781a16.255,16.255,0,0,0-.7,2.528c-.3,1.548-3.416,7.081-5.176,9.967a10.271,10.271,0,0,1-1.178-2.912A10.649,10.649,0,0,1,54,34.572a28.209,28.209,0,0,1,1.006-3.6c-.014-.145-.186-.873-1.893-.887s-3.177.331-3.349.781-.357,1.508-.7,2.528-4.487,10.231-5.573,12.627c-.556,1.218-1.032,2.2-1.376,2.859-.053.106-.092.172-.119.225.039-.067.067-.133.067-.106-.292.569-.463.887-.463.887V49.9c-.225.424-.477.807-.6.807a5.485,5.485,0,0,1,.04-2.634c.622-3.2,2.091-8.179,2.078-8.352-.013-.093.278-.953-.966-1.417a1.557,1.557,0,0,0-1.747.291c-.105,0-.185.265-.185.265s1.337-5.612-2.568-5.612c-2.435,0-5.824,2.674-7.492,5.1-1.046.569-3.309,1.8-5.692,3.111-.914.5-1.853,1.019-2.74,1.509-.066-.067-.119-.133-.185-.2-4.739-5.056-13.488-8.63-13.117-15.42.132-2.476.993-8.974,16.824-16.863C38.227,4.021,48.6,5.795,50.391,9.739c2.568,5.626-5.547,16.1-19.021,17.6-5.135.569-7.835-1.417-8.511-2.158-.7-.781-.807-.821-1.072-.675-.437.238-.159.927,0,1.337a7.975,7.975,0,0,0,4.871,3.826c2.475.807,8.5,1.258,15.777-1.562,8.18-3.15,14.547-11.926,12.681-19.272-1.908-7.463-14.284-9.912-26-5.756C22.144,5.558,14.6,9.451,9.171,14.519,2.725,20.555,1.693,25.81,2.117,28.007c1.509,7.8,12.257,12.879,16.558,16.639-.212.119-.411.225-.6.33-2.158,1.072-10.351,5.361-12.4,9.888C3.361,60,6.061,63.679,7.834,64.182c5.532,1.535,11.2-1.232,14.242-5.771s2.674-10.47,1.27-13.17c-.014-.039-.039-.066-.053-.106.555-.33,1.125-.661,1.694-.993,1.1-.648,2.171-1.244,3.11-1.76a20.527,20.527,0,0,0-1.112,5.639c-.238,2.911.966,6.684,2.528,8.167a2.781,2.781,0,0,0,2.039.661c1.827,0,2.647-1.509,3.56-3.309,1.126-2.2,2.117-4.752,2.117-4.752s-1.244,6.91,2.158,6.91c1.244,0,2.489-1.6,3.044-2.422v.014s.027-.053.093-.159c.132-.2.2-.319.2-.319v-.04c.5-.86,1.6-2.832,3.256-6.089,2.145-4.209,4.2-9.464,4.2-9.464A26.7,26.7,0,0,0,51,40.635a31.894,31.894,0,0,0,1.774,3.971c-.5.688-.807,1.085-.807,1.085a.042.042,0,0,0,.012.026c-.4.53-.846,1.1-1.31,1.655A46.694,46.694,0,0,0,46.7,52.35a1.352,1.352,0,0,0,.371,1.813,3.22,3.22,0,0,0,2.078.331,9.174,9.174,0,0,0,3.111-.716,10.854,10.854,0,0,0,2.674-1.4A5.971,5.971,0,0,0,57.5,47.107a10.953,10.953,0,0,0-.966-3.732c.146-.212.3-.437.45-.661a70.289,70.289,0,0,0,4.646-8.022,26.681,26.681,0,0,0,.821,3.415,23.455,23.455,0,0,0,1.508,3.4,14.549,14.549,0,0,0-4.513,5.837c-.979,2.819-.211,4.089,1.232,4.381a4.441,4.441,0,0,0,2.264-.463,10.467,10.467,0,0,0,2.859-1.47c1.655-1.217,3.256-2.925,3.151-5.241a9.859,9.859,0,0,0-.715-3.1A16.154,16.154,0,0,1,76.45,40.5c7.373.86,8.816,5.467,8.538,7.385A4.856,4.856,0,0,1,82.645,51.2c-.517.318-.675.437-.635.675.066.344.3.331.741.251A5.75,5.75,0,0,0,86.761,47c.213-4.5-4.116-9.449-11.779-9.41ZM18.159,56.742c-2.435,2.661-5.85,3.667-7.319,2.819-1.575-.913-.953-4.831,2.052-7.664a39.207,39.207,0,0,1,5.744-4.288c.357-.212.873-.53,1.509-.914.106-.066.159-.092.159-.092.119-.08.251-.146.384-.226a10.559,10.559,0,0,1-2.528,10.364Zm17.79-12.1c-.847,2.078-2.634,7.372-3.719,7.094-.927-.238-1.5-4.275-.186-8.245a18.245,18.245,0,0,1,2.9-5.308c1.337-1.5,2.806-1.973,3.15-1.377.463.781-1.615,6.538-2.145,7.836ZM50.64,51.66c-.357.186-.688.3-.846.212-.119-.067.145-.319.145-.319s1.84-1.972,2.568-2.873c.423-.529.913-1.151,1.443-1.84,0,.066.014.133.014.211C53.95,49.424,51.673,51.025,50.64,51.66Zm11.331-2.581c-.265-.186-.225-.807.661-2.74A10.323,10.323,0,0,1,65.146,43.1a4.773,4.773,0,0,1,.252,1.429,4.666,4.666,0,0,1-3.428,4.554Z" transform="translate(-2.034 -1.07)" fill="#cf649a"/>
      </g>
    </g>
  </g>
</svg>
