<svg xmlns="http://www.w3.org/2000/svg" width="76.699" height="69.401" viewBox="0 0 76.699 69.401">
  <g id="Group_11982" data-name="Group 11982" transform="translate(-971.243 -4332)">
    <path id="Path_18942" data-name="Path 18942" d="M15.532,0,38.346,44.654,0,0Z" transform="translate(971.243 4356.747)" fill="#ea6c00" fill-rule="evenodd"/>
    <path id="Path_18943" data-name="Path 18943" d="M15.532,44.654,38.346,0,0,44.654Z" transform="translate(1047.941 4401.401) rotate(180)" fill="#ea6c00" fill-rule="evenodd"/>
    <path id="Path_18944" data-name="Path 18944" d="M0,0H45.628L22.814,44.654Z" transform="translate(986.774 4356.747)" fill="#fdad00" fill-rule="evenodd"/>
    <path id="Path_18945" data-name="Path 18945" d="M22.814,0,1.2,2.285,0,24.747Z" transform="translate(986.774 4332)" fill="#fdd231" fill-rule="evenodd"/>
    <path id="Path_18946" data-name="Path 18946" d="M22.814,24.747,1.2,22.462,0,0Z" transform="translate(1032.402 4356.747) rotate(180)" fill="#fdd231" fill-rule="evenodd"/>
    <path id="Path_18947" data-name="Path 18947" d="M0,0,16.733,22.462,15.532,0Z" transform="translate(1047.941 4356.747) rotate(180)" fill="#fdad00" fill-rule="evenodd"/>
    <path id="Path_18948" data-name="Path 18948" d="M0,22.462,16.733,0l-1.2,22.462Z" transform="translate(971.243 4334.285)" fill="#fdad00" fill-rule="evenodd"/>
    <path id="Path_18949" data-name="Path 18949" d="M22.814,0,0,24.747H45.628Z" transform="translate(986.774 4332)" fill="#feeeb7" fill-rule="evenodd"/>
  </g>
</svg>
