<svg xmlns="http://www.w3.org/2000/svg" xmlns:xlink="http://www.w3.org/1999/xlink" width="80.882" height="35.898" viewBox="0 0 80.882 35.898">
  <defs>
    <linearGradient id="linear-gradient" x1="0.888" y1="1.521" x2="0.888" y2="1.52" gradientUnits="objectBoundingBox">
      <stop offset="0" stop-color="#97d9f6"/>
      <stop offset="0.92" stop-color="#0f80cc"/>
      <stop offset="1" stop-color="#0f80cc"/>
    </linearGradient>
  </defs>
  <g id="Group_11978" data-name="Group 11978" transform="translate(-461.119 -4175.947)">
    <path id="Path_2200" data-name="Path 2200" d="M59.295,36.292a3.659,3.659,0,0,0-2.626.957,3.3,3.3,0,0,0-1.013,2.5,4.1,4.1,0,0,0,.251,1.459,3.688,3.688,0,0,0,.775,1.23,11.338,11.338,0,0,0,2.088,1.523,10.588,10.588,0,0,1,2.515,1.906,2.429,2.429,0,0,1,.6,1.552,2.194,2.194,0,0,1-.726,1.732,2.848,2.848,0,0,1-1.956.65A3.2,3.2,0,0,1,55.99,46.51h-.4v3.612h.4c.122-.341.29-.517.51-.517a3.283,3.283,0,0,1,.741.209,7.216,7.216,0,0,0,2.319.5,3.8,3.8,0,0,0,3.8-3.8,3.456,3.456,0,0,0-.733-2.166,10.544,10.544,0,0,0-2.843-2.207,9.424,9.424,0,0,1-2.368-1.788,2.432,2.432,0,0,1-.551-1.537,1.8,1.8,0,0,1,.663-1.459,2.635,2.635,0,0,1,1.74-.545,2.905,2.905,0,0,1,2.026.727,3.05,3.05,0,0,1,.936,2.026h.4V36.433h-.37a.952.952,0,0,1-.126.307.269.269,0,0,1-.216.07,2.682,2.682,0,0,1-.685-.16,6.1,6.1,0,0,0-1.936-.357Zm13.014,0a7.057,7.057,0,0,0-3.584.929,7.047,7.047,0,0,0-3.506,6.063,6.687,6.687,0,0,0,1.641,4.443A6.877,6.877,0,0,0,70.8,50.144a6.35,6.35,0,0,1,1.5,1.411A11.824,11.824,0,0,0,74.172,53.4a5.61,5.61,0,0,0,1.649.818,6.5,6.5,0,0,0,1.9.266,5.319,5.319,0,0,0,2.221-.441l-.147-.363a3.542,3.542,0,0,1-1.209.2,3.177,3.177,0,0,1-1.745-.573,10.849,10.849,0,0,1-2.187-2.193,7.458,7.458,0,0,0-.852-.971,6.894,6.894,0,0,0,4.114-2.432,6.759,6.759,0,0,0,1.606-4.429,6.646,6.646,0,0,0-2.089-4.966,7.083,7.083,0,0,0-5.126-2.027Zm8.124,0,.021.426c.874,0,1.364.258,1.474.776a5.92,5.92,0,0,1,.063,1.02l-.007,9.423a2.112,2.112,0,0,1-.3,1.349,1.615,1.615,0,0,1-.992.363l-.021.426h8.717l.224-2.138h-.4a1.707,1.707,0,0,1-.789,1.236,4.819,4.819,0,0,1-2.214.356h-.825q-1.435,0-1.656-1.04a2.244,2.244,0,0,1-.041-.447l.034-9.528a2.449,2.449,0,0,1,.273-1.4A1.363,1.363,0,0,1,85,36.718l-.021-.426Zm-7.984.517a4.416,4.416,0,0,1,3.625,1.76,7.583,7.583,0,0,1,1.4,4.835,7.181,7.181,0,0,1-1.411,4.651A4.58,4.58,0,0,1,72.308,49.8,4.385,4.385,0,0,1,68.668,48a7.444,7.444,0,0,1-1.39-4.686,7.4,7.4,0,0,1,1.4-4.736,4.562,4.562,0,0,1,3.766-1.767Zm20.047,2.026a.613.613,0,0,0-.5.216.59.59,0,0,0-.118.532.936.936,0,0,0,.342.538.917.917,0,0,0,.594.231.556.556,0,0,0,.475-.231.646.646,0,0,0,.105-.538.918.918,0,0,0-.329-.532.892.892,0,0,0-.573-.216Zm5.749,1.446A2.639,2.639,0,0,1,95.9,42.544l.014.4h1.4l-.028,4.708a10,10,0,0,0,.084,1.614,1.162,1.162,0,0,0,1.279.985,4.648,4.648,0,0,0,3.248-1.886l-.342-.294a3.361,3.361,0,0,1-2.172,1.243c-.388,0-.629-.223-.72-.663a1.752,1.752,0,0,1-.034-.377l.014-5.33h2.144l-.021-.636H98.65V40.28h-.406Zm8.291,1.774A3.4,3.4,0,0,0,103.6,43.8a4.935,4.935,0,0,0-.691,3.855,3.318,3.318,0,0,0,1.054,1.921,3,3,0,0,0,2.012.678,4.028,4.028,0,0,0,2.235-.573,5.251,5.251,0,0,0,1.223-1.851l-.3-.315a3.252,3.252,0,0,1-2.717,1.654,2.218,2.218,0,0,1-2.305-2.052,4.85,4.85,0,0,1-.084-.56,7.257,7.257,0,0,0,3.381-1.256c.762-.6,1.526-1.245,1.383-1.921a1.559,1.559,0,0,0-.614-.957,3.59,3.59,0,0,0-1.641-.364Zm-13.11.049L90.84,42.7v.461l.894-.112a.691.691,0,0,1,.768.586,3.137,3.137,0,0,1,.049.545L92.523,48.4c-.007.586-.072.926-.2,1.028a2.1,2.1,0,0,1-1.04.153l-.014.4h4.1l-.007-.4a2.864,2.864,0,0,1-1.1-.133.66.66,0,0,1-.321-.489,5.129,5.129,0,0,1-.056-.894l.013-5.966h-.467Zm12.454.782a1.178,1.178,0,0,1,.733.287,1.1,1.1,0,0,1,.433.629c.234,1.124-.763,1.9-3,2.332a3.962,3.962,0,0,1,.44-2.235,1.6,1.6,0,0,1,1.4-1.013Z" transform="translate(432.566 4157.362)" fill="#003b57"/>
    <path id="Path_2201" data-name="Path 2201" d="M25.269,3.31H3.027A2.718,2.718,0,0,0,.316,6.02V30.549A2.718,2.718,0,0,0,3.027,33.26H17.676C17.509,25.971,20,11.825,25.269,3.31Z" transform="translate(460.803 4174.21)" fill="#0f80cc"/>
    <path id="Path_2202" data-name="Path 2202" d="M25.286,4.925H3.852a1.922,1.922,0,0,0-1.92,1.92v22.74c4.854-1.864,12.14-3.471,17.178-3.4A156.428,156.428,0,0,1,25.286,4.925Z" transform="translate(459.977 4173.385)" fill="url(#linear-gradient)"/>
    <path id="Path_2203" data-name="Path 2203" d="M47.029.864c-1.523-1.358-3.367-.813-5.188.8-.271.24-.54.506-.808.791-3.114,3.3-6,9.423-6.9,14.1a12.888,12.888,0,0,1,.8,2.306c.046.177.088.343.121.486.079.335.121.552.121.552s-.028-.106-.143-.437c-.022-.065-.046-.134-.075-.215-.015-.04-.031-.081-.048-.12-.2-.472-.765-1.468-1.013-1.9q-.294.863-.555,1.737A15.376,15.376,0,0,1,34.493,22.5s-.038-.146-.217-.651a23.8,23.8,0,0,0-1.141-2.163,5.115,5.115,0,0,0-.334,2.183,7.571,7.571,0,0,1,.624,1.751c.422,1.625.716,3.6.716,3.6s.009.132.025.334a33.083,33.083,0,0,0,.082,4.057,14.376,14.376,0,0,0,.739,3.924l.228-.123a17.57,17.57,0,0,1-.606-5.86,44.665,44.665,0,0,1,2.454-12.265c2.545-6.72,6.076-12.112,9.307-14.688-2.945,2.66-6.93,11.268-8.123,14.456a57.835,57.835,0,0,0-2.853,10.13,7.868,7.868,0,0,1,4.167-4.3s1.561-1.925,3.386-4.676a32.889,32.889,0,0,0-3.488.929c-.887.371-1.126.5-1.126.5A30.3,30.3,0,0,1,43.667,17.1C47.055,11.762,50.748,4.18,47.029.864" transform="translate(444.23 4175.853)" fill="#003b57"/>
  </g>
</svg>
