<svg xmlns="http://www.w3.org/2000/svg" width="87.007" height="52.19" viewBox="0 0 87.007 52.19">
  <path id="tailwind-css-2" d="M43.654.13q-17.4,0-21.752,17.4Q28.428,8.827,37.128,11c3.31.827,5.675,3.228,8.294,5.885,4.265,4.328,9.2,9.337,19.984,9.337q17.4,0,21.751-17.4-6.525,8.7-15.227,6.525c-3.309-.827-5.674-3.228-8.293-5.885C59.373,5.139,54.436.13,43.654.13ZM21.9,26.225q-17.4,0-21.751,17.4,6.525-8.7,15.227-6.524c3.309.828,5.674,3.228,8.293,5.884,4.265,4.328,9.2,9.338,19.984,9.338q17.4,0,21.752-17.4-6.526,8.7-15.227,6.524c-3.31-.826-5.675-3.228-8.294-5.884-4.265-4.328-9.2-9.338-19.984-9.338Z" transform="translate(-0.15 -0.13)" fill="#06b6d4"/>
</svg>
