<svg xmlns="http://www.w3.org/2000/svg" width="76" height="76" viewBox="0 0 76 76">
  <g id="Group_11918" data-name="Group 11918" transform="translate(-705 -3976)">
    <path id="Path_18998" data-name="Path 18998" d="M0,38V0H76V76H0" transform="translate(705 3976)" fill="#007acc"/>
    <path id="Path_18999" data-name="Path 18999" d="M87.7,185.575v3.1h9.88v28.12h7.011v-28.12h9.88v-3.04a23.68,23.68,0,0,0-.076-3.135c0-.057-6.023-.076-13.338-.076l-13.3.057v3.116l-.057-.019Zm44.4-3.173a9.2,9.2,0,0,1,4.75,2.717,11.957,11.957,0,0,1,1.824,2.432c0,.114-3.287,2.337-5.282,3.572-.076.057-.38-.266-.684-.76a4.345,4.345,0,0,0-3.572-2.128c-2.28-.152-3.8,1.045-3.8,3.04a3,3,0,0,0,.342,1.444c.513,1.045,1.463,1.672,4.408,2.964,5.434,2.337,7.79,3.876,9.215,6.08a11.071,11.071,0,0,1,.893,9.253c-1.216,3.173-4.18,5.32-8.417,6.023a23.7,23.7,0,0,1-5.795-.057,14.344,14.344,0,0,1-7.733-4.047,13.581,13.581,0,0,1-1.976-2.926l.722-.456,2.85-1.653L122,206.646l.494.665a10.34,10.34,0,0,0,2.85,2.774c2.47,1.273,5.776,1.1,7.41-.38a2.847,2.847,0,0,0,1.007-2.28,2.932,2.932,0,0,0-.57-1.938c-.608-.836-1.824-1.52-5.244-3.04-3.933-1.672-5.605-2.736-7.163-4.37a10.793,10.793,0,0,1-2.09-3.8,14.551,14.551,0,0,1-.114-4.883,9.257,9.257,0,0,1,7.79-7.22,18.417,18.417,0,0,1,5.776.19l-.038.038Z" transform="translate(633.963 3828.558)" fill="#fff"/>
  </g>
</svg>
