<svg xmlns="http://www.w3.org/2000/svg" width="82.617" height="66.041" viewBox="0 0 82.617 66.041">
  <g id="Group_11986" data-name="Group 11986" transform="translate(-1190.061 -4189.162)">
    <path id="Path_18957" data-name="Path 18957" d="M242.952,1326.4l-4.322,1.579-.23,12.856,14.96-5.465c-5.135-1.72-8.881-4.751-10.408-8.97" transform="translate(959.844 2908.298)" fill="#fdbd39"/>
    <path id="Path_18958" data-name="Path 18958" d="M15,930.3,0,935.779l8.414,9.7,4.322-1.579c-1.524-4.205-.584-8.953,2.262-13.6" transform="translate(1190.061 3290.801)" fill="#f69833"/>
    <path id="Path_18959" data-name="Path 18959" d="M378.093,284.811c-19.1,6.975-31.41,21.373-27.5,32.152L419.75,291.7c-3.913-10.779-22.56-13.865-41.657-6.89" transform="translate(852.201 3917.736)" fill="#fecf33"/>
    <path id="Path_18960" data-name="Path 18960" d="M412.557,622.752c19.1-6.975,31.431-21.307,27.5-32.152L370.9,615.859c3.934,10.848,22.56,13.869,41.657,6.893" transform="translate(831.893 3618.84)" fill="#ee6723"/>
    <path id="Path_18961" data-name="Path 18961" d="M440.15,590.5,371,615.762c1.353,3.735,6.519,5.575,13.762,5.575,7.065,0,16.107-1.747,25.533-5.19,19.1-6.975,32.529-18.273,29.855-25.646" transform="translate(831.797 3618.936)" fill="#f69833"/>
    <path id="Path_18962" data-name="Path 18962" d="M416.846,428.2c-7.061,0-16.107,1.747-25.533,5.19-19.1,6.975-32.529,18.269-29.855,25.643l69.154-25.262c-1.356-3.735-6.519-5.571-13.766-5.571" transform="translate(841.339 3775.665)" fill="#fdbd39"/>
    <g id="Group_10106" data-name="Group 10106" transform="translate(1216.804 4189.162)">
      <path id="Path_18963" data-name="Path 18963" d="M816.6,214.555c-2.036,0-5.036-1.837-8.922-5.462a115.384,115.384,0,0,1-14.826-17.686,115.5,115.5,0,0,1-11.486-20.034c-2.66-6.323-3.042-10.209-1.129-11.555a2.55,2.55,0,0,1,1.5-.443c1.555,0,4.59,1.157,10.2,6.677l.124.12-.017.172c-.038.4-.072.8-.1,1.191l-.062.779-.549-.553c-6.042-6.086-8.7-6.742-9.564-6.742a1,1,0,0,0-.584.148c-.831.584-.886,3.44,1.7,9.567a113.891,113.891,0,0,0,11.318,19.728,113.417,113.417,0,0,0,14.6,17.425c4.868,4.542,7.061,5.033,7.779,5.033a1.017,1.017,0,0,0,.6-.158c.875-.615.875-3.673-2-10.271l-.134-.3.288-.158c.288-.158.57-.312.831-.463l.347-.2.161.364c2.039,4.675,3.948,10.618,1.445,12.375A2.564,2.564,0,0,1,816.6,214.555Zm0-.721v0Z" transform="translate(-779.037 -153.901)" fill="#ee6723"/>
      <path id="Path_18964" data-name="Path 18964" d="M1141.641,52.13l-.027.357c-.484,5.973-1.754,13.155-5.07,13.446-.069.007-.137.007-.2.007-2.252,0-4.384-3.227-6.33-9.588a115.371,115.371,0,0,1-4.03-22.756,115.672,115.672,0,0,1,.031-23.113c.845-6.811,2.451-10.367,4.779-10.573.069-.007.141-.01.209-.01,1.634,0,4.1,1.85,6.615,10.467l-1.644.316a33.885,33.885,0,0,0-2.667-6.831c-.841-1.486-1.661-2.307-2.3-2.307a.438.438,0,0,0-.065,0c-1.009.089-2.479,2.533-3.3,9.138a114,114,0,0,0-.027,22.766,113.96,113.96,0,0,0,3.965,22.416,30.55,30.55,0,0,0,2.575,6.309c.8,1.366,1.582,2.118,2.19,2.118a.375.375,0,0,0,.062,0c.965-.082,2.784-2.63,3.55-11.586Z" transform="translate(-1113.531 0.1)" fill="#ee6723"/>
    </g>
  </g>
</svg>
